# This file uses centimeters as units for non-parametric coordinates.

mtllib frontChassis.mtl
g default
v -3.130834 -2.867221 -30.073227
v -3.889338 -2.032889 -30.073227
v -20.425047 -4.765401 -30.073227
v -22.748819 -12.547854 -30.073227
v -17.025187 -12.547854 -30.073227
v -17.025177 -12.090528 -30.073227
v -14.850813 -2.610981 -30.073227
v -17.025177 -12.090528 0.000000
v -17.025187 -12.547854 0.000000
v -22.748819 -12.547854 0.000000
v -20.425047 -4.765401 0.000000
v -14.826859 -2.609887 0.000000
v -3.889337 -2.032890 0.000000
v -3.130834 -2.867221 0.000000
v -14.826870 -2.609890 -23.150047
v -20.425047 -4.765401 -23.150047
v -22.748819 -12.547854 -23.150047
v -17.025187 -12.547854 -23.150047
v -17.025177 -12.090528 -23.150047
v -3.130834 -2.867221 -23.150047
v -3.889337 -2.032890 -23.150047
v -17.025177 -12.090528 -6.628197
v -17.025187 -12.547855 -6.628197
v -22.748819 -12.547855 -6.628197
v -20.425049 -4.765401 -6.628197
v -14.826862 -2.609887 -6.628198
v -3.889338 -2.032890 -6.628197
v -3.130835 -2.867221 -6.628197
v -14.826862 -2.609886 -9.275388
v -20.425049 -4.765401 -9.275388
v -22.748819 -12.547855 -9.275388
v -17.025187 -12.547855 -9.275388
v -17.025177 -12.090528 -9.275388
v -3.130835 -2.867221 -9.275388
v -3.889338 -2.032890 -9.275388
v 14.192647 -2.338133 -30.073227
v 14.192640 -2.338133 -23.150047
v 14.192641 -2.338133 -9.275388
v 14.192647 -2.338133 -6.628197
v 14.192647 -2.338133 0.000000
v 14.192647 -3.772322 -30.073227
v 14.192640 -3.772322 -23.150047
v 14.192641 -3.772322 -9.275388
v 14.192647 -3.772322 -6.628197
v 14.192647 -3.772322 0.000000
v 11.308647 -2.338133 -30.073227
v 11.308647 -2.338133 0.000000
v 11.308646 -2.338133 -6.628197
v 11.308648 -2.338133 -23.150047
v 11.308646 -2.338133 -9.275388
v -17.025177 -11.304587 0.000000
v -17.025177 -11.304587 -6.628197
v -17.025177 -11.304587 -23.150047
v -17.025177 -11.304587 -30.073227
v -17.025177 -11.304587 -9.275388
v -17.025177 -11.304587 0.000000
v -17.025177 -11.304587 -6.628197
v -17.025177 -11.304587 -23.150047
v -17.025177 -11.304587 -30.073227
v -17.025177 -11.304587 -9.275388
v -15.481895 -11.304587 0.000000
v -15.481895 -11.304587 -6.628197
v -15.481895 -11.304587 -23.150047
v -15.481895 -11.304587 -30.073227
v -15.481895 -11.304587 -9.275388
v -3.130834 -2.867221 30.073227
v -3.889338 -2.032889 30.073227
v -20.425047 -4.765401 30.073227
v -22.748819 -12.547854 30.073227
v -17.025187 -12.547854 30.073227
v -17.025177 -12.090528 30.073227
v -14.850813 -2.610981 30.073227
v -17.025177 -12.090528 0.000000
v -17.025187 -12.547854 0.000000
v -22.748819 -12.547854 0.000000
v -20.425047 -4.765401 0.000000
v -14.826859 -2.609887 0.000000
v -3.889337 -2.032890 0.000000
v -3.130834 -2.867221 0.000000
v -14.826870 -2.609890 23.150047
v -20.425047 -4.765401 23.150047
v -22.748819 -12.547854 23.150047
v -17.025187 -12.547854 23.150047
v -17.025177 -12.090528 23.150047
v -3.130834 -2.867221 23.150047
v -3.889337 -2.032890 23.150047
v -17.025177 -12.090528 6.628197
v -17.025187 -12.547855 6.628197
v -22.748819 -12.547855 6.628197
v -20.425049 -4.765401 6.628197
v -14.826862 -2.609887 6.628198
v -3.889338 -2.032890 6.628197
v -3.130835 -2.867221 6.628197
v -14.826862 -2.609886 9.275388
v -20.425049 -4.765401 9.275388
v -22.748819 -12.547855 9.275388
v -17.025187 -12.547855 9.275388
v -17.025177 -12.090528 9.275388
v -3.130835 -2.867221 9.275388
v -3.889338 -2.032890 9.275388
v 14.192647 -2.338133 30.073227
v 14.192640 -2.338133 23.150047
v 14.192641 -2.338133 9.275388
v 14.192647 -2.338133 6.628197
v 14.192647 -2.338133 0.000000
v 14.192647 -3.772322 30.073227
v 14.192640 -3.772322 23.150047
v 14.192641 -3.772322 9.275388
v 14.192647 -3.772322 6.628197
v 14.192647 -3.772322 0.000000
v 11.308647 -2.338133 30.073227
v 11.308647 -2.338133 0.000000
v 11.308646 -2.338133 6.628197
v 11.308648 -2.338133 23.150047
v 11.308646 -2.338133 9.275388
v -17.025177 -11.304587 0.000000
v -17.025177 -11.304587 6.628197
v -17.025177 -11.304587 23.150047
v -17.025177 -11.304587 30.073227
v -17.025177 -11.304587 9.275388
v -17.025177 -11.304587 0.000000
v -17.025177 -11.304587 6.628197
v -17.025177 -11.304587 23.150047
v -17.025177 -11.304587 30.073227
v -17.025177 -11.304587 9.275388
v -15.481895 -11.304587 0.000000
v -15.481895 -11.304587 6.628197
v -15.481895 -11.304587 23.150047
v -15.481895 -11.304587 30.073227
v -15.481895 -11.304587 9.275388
vt 0.375000 0.500000
vt 1.000000 0.000000
vt 1.000000 1.000000
vt 1.000000 0.000000
vt 1.000000 0.482545
vt 1.000000 0.000000
vt 1.000000 1.000000
vt 1.000000 0.000000
vt 1.000000 1.000000
vt 1.000000 0.000000
vt 1.000000 1.000000
vt 1.000000 1.000000
vt 0.500000 1.000000
vt 0.500000 0.000000
vt 0.500000 1.000000
vt 0.500000 0.000000
vt 0.500000 1.000000
vt 0.500000 0.000000
vt 0.500000 1.000000
vt 0.500000 0.482545
vt 0.500000 0.000000
vt 0.500000 1.000000
vt 0.500000 0.000000
vt 0.375000 0.375000
vt 0.908522 0.482545
vt 0.908522 0.000000
vt 0.908522 1.000000
vt 0.908522 0.000000
vt 0.908522 1.000000
vt 0.908522 0.000000
vt 0.908522 1.000000
vt 0.908522 1.000000
vt 0.908522 0.000000
vt 0.375000 0.477131
vt 0.908522 0.000000
vt 0.908522 1.000000
vt 0.616707 1.000000
vt 0.616707 0.000000
vt 0.616707 1.000000
vt 0.616707 0.000000
vt 0.616707 1.000000
vt 0.616707 0.000000
vt 0.616707 1.000000
vt 0.616707 0.482545
vt 0.616707 0.000000
vt 0.616707 1.000000
vt 0.616707 0.000000
vt 0.375000 0.404177
vt 0.663318 0.482545
vt 0.663318 0.000000
vt 0.663318 1.000000
vt 0.663318 0.000000
vt 0.663318 1.000000
vt 0.663318 0.000000
vt 0.663318 1.000000
vt 0.663318 1.000000
vt 0.663318 0.000000
vt 0.375000 0.415830
vt 0.663318 0.000000
vt 0.663318 1.000000
vt 0.565146 0.500000
vt 0.565146 0.477130
vt 0.565146 0.415830
vt 0.565146 0.404177
vt 0.565146 0.375000
vt 0.000000 0.000000
vt 1.000000 0.000000
vt 1.000000 1.000000
vt 0.000000 1.000000
vt 0.000000 0.000000
vt 1.000000 0.000000
vt 1.000000 1.000000
vt 0.000000 1.000000
vt 0.000000 0.000000
vt 1.000000 0.000000
vt 1.000000 1.000000
vt 0.000000 1.000000
vt 0.000000 0.000000
vt 1.000000 0.000000
vt 1.000000 1.000000
vt 0.000000 1.000000
vt 0.533491 0.500000
vt 0.533491 0.375000
vt 0.533491 0.404177
vt 0.533491 0.477131
vt 0.533491 0.415830
vt 0.000000 0.000000
vt 1.000000 0.000000
vt 1.000000 1.000000
vt 0.000000 1.000000
vt 0.000000 0.000000
vt 1.000000 0.000000
vt 1.000000 1.000000
vt 0.000000 1.000000
vt 0.000000 0.000000
vt 1.000000 0.000000
vt 1.000000 1.000000
vt 0.000000 1.000000
vt 0.000000 0.000000
vt 1.000000 0.000000
vt 1.000000 1.000000
vt 0.000000 1.000000
vt 0.000000 0.000000
vt 1.000000 0.000000
vt 1.000000 1.000000
vt 0.000000 1.000000
vt 0.000000 0.000000
vt 1.000000 0.000000
vt 1.000000 1.000000
vt 0.000000 1.000000
vt 0.000000 0.000000
vt 1.000000 0.000000
vt 1.000000 1.000000
vt 0.000000 1.000000
vt 0.000000 0.000000
vt 1.000000 0.000000
vt 1.000000 1.000000
vt 0.000000 1.000000
vt 0.000000 0.000000
vt 1.000000 0.000000
vt 1.000000 1.000000
vt 0.000000 1.000000
vt 0.000000 0.000000
vt 1.000000 0.000000
vt 1.000000 1.000000
vt 0.000000 1.000000
vt 0.000000 0.000000
vt 1.000000 0.000000
vt 1.000000 1.000000
vt 0.000000 1.000000
vt 0.000000 0.000000
vt 1.000000 0.000000
vt 1.000000 1.000000
vt 0.000000 1.000000
vt 0.616707 1.000000
vt 0.616707 0.000000
vt 0.663318 0.000000
vt 0.663318 1.000000
vt 0.663318 0.000000
vt 0.663318 0.482545
vt 0.616707 0.482545
vt 0.616707 0.000000
vt 0.663318 0.000000
vt 0.663318 1.000000
vt 0.616707 1.000000
vt 0.616707 0.000000
vt 0.663318 0.000000
vt 0.663318 1.000000
vt 0.616707 1.000000
vt 0.616707 0.000000
vt 0.663318 0.000000
vt 0.663318 1.000000
vt 0.616707 1.000000
vt 0.616707 0.000000
vt 0.663318 1.000000
vt 0.616707 1.000000
vt 1.000000 0.482545
vt 1.000000 1.000000
vt 0.908522 1.000000
vt 0.908522 0.482545
vt 1.000000 0.000000
vt 1.000000 1.000000
vt 0.908522 1.000000
vt 0.908522 0.000000
vt 1.000000 0.000000
vt 1.000000 1.000000
vt 0.908522 1.000000
vt 0.908522 0.000000
vt 1.000000 0.000000
vt 1.000000 1.000000
vt 0.908522 1.000000
vt 0.908522 0.000000
vt 0.908522 1.000000
vt 0.908522 0.000000
vt 1.000000 0.000000
vt 1.000000 1.000000
vt 1.000000 0.000000
vt 0.908522 0.000000
vt 0.500000 1.000000
vt 0.500000 0.000000
vt 0.500000 1.000000
vt 0.500000 0.000000
vt 0.500000 1.000000
vt 0.500000 0.000000
vt 0.500000 1.000000
vt 0.500000 0.482545
vt 0.500000 0.000000
vt 0.500000 1.000000
vt 0.500000 0.000000
vt 0.565146 0.477130
vt 0.565146 0.500000
vt 0.533491 0.500000
vt 0.533491 0.477131
vt 0.375000 0.415830
vt 0.533491 0.415830
vt 0.375000 0.477131
vt 0.375000 0.404177
vt 0.533491 0.404177
vt 0.565146 0.375000
vt 0.565146 0.404177
vt 0.533491 0.375000
vt 0.000000 0.000000
vt 1.000000 0.000000
vt 1.000000 1.000000
vt 0.000000 1.000000
vt 0.000000 0.000000
vt 1.000000 0.000000
vt 1.000000 1.000000
vt 0.000000 1.000000
vt 0.000000 0.000000
vt 1.000000 0.000000
vt 1.000000 1.000000
vt 0.000000 1.000000
vt 0.000000 0.000000
vt 1.000000 0.000000
vt 1.000000 1.000000
vt 0.000000 1.000000
vt 0.375000 0.500000
vt 0.565146 0.415830
vt 0.375000 0.375000
vt 0.000000 0.000000
vt 1.000000 0.000000
vt 1.000000 1.000000
vt 0.000000 1.000000
vt 0.000000 0.000000
vt 1.000000 0.000000
vt 1.000000 1.000000
vt 0.000000 1.000000
vt 0.000000 0.000000
vt 1.000000 0.000000
vt 1.000000 1.000000
vt 0.000000 1.000000
vt 0.000000 0.000000
vt 1.000000 0.000000
vt 1.000000 1.000000
vt 0.000000 1.000000
vt 0.000000 0.000000
vt 1.000000 0.000000
vt 1.000000 1.000000
vt 0.000000 1.000000
vt 0.000000 0.000000
vt 1.000000 0.000000
vt 1.000000 1.000000
vt 0.000000 1.000000
vt 0.000000 0.000000
vt 1.000000 0.000000
vt 1.000000 1.000000
vt 0.000000 1.000000
vt 0.000000 0.000000
vt 1.000000 0.000000
vt 1.000000 1.000000
vt 0.000000 1.000000
vt 0.000000 0.000000
vt 1.000000 0.000000
vt 1.000000 1.000000
vt 0.000000 1.000000
vt 0.000000 0.000000
vt 1.000000 0.000000
vt 1.000000 1.000000
vt 0.000000 1.000000
vt 0.000000 0.000000
vt 1.000000 0.000000
vt 1.000000 1.000000
vt 0.000000 1.000000
vt 0.000000 0.000000
vt 1.000000 0.000000
vt 1.000000 1.000000
vt 0.000000 1.000000
vn 0.739931 0.672682 -0.000000
vn 0.739931 0.672682 -0.000000
vn 0.739931 0.672682 0.000000
vn 0.739931 0.672682 0.000000
vn -0.052681 0.998611 -0.000000
vn -0.163038 0.986620 -0.000000
vn -0.052681 0.998611 0.000000
vn -0.163038 0.986620 0.000000
vn -0.958197 0.286109 -0.000000
vn -0.958197 0.286109 0.000000
vn -0.958197 0.286109 0.000000
vn -0.958197 0.286109 0.000000
vn 0.000000 -1.000000 0.000000
vn 0.000000 -1.000000 0.000000
vn 0.000000 -1.000000 0.000000
vn 0.000000 -1.000000 0.000000
vn 1.000000 -0.000016 -0.000000
vn 1.000000 -0.000016 0.000000
vn 1.000000 -0.000022 0.000000
vn 1.000000 -0.000021 0.000000
vn -0.359323 0.933213 -0.000000
vn -0.359322 0.933213 0.000000
vn -0.360507 0.932757 0.000000
vn -0.359501 0.933145 0.000199
vn -0.163270 0.986582 0.000195
vn -0.162900 0.986643 0.000134
vn -0.958197 0.286109 0.000000
vn -0.958197 0.286109 0.000000
vn -0.958197 0.286109 -0.000000
vn -0.958197 0.286109 -0.000000
vn 0.000000 -1.000000 0.000000
vn 0.000000 -1.000000 0.000000
vn 0.000000 -1.000000 0.000000
vn 0.000000 -1.000000 0.000000
vn 1.000000 -0.000024 0.000000
vn 1.000000 -0.000024 0.000000
vn 1.000000 -0.000026 -0.000000
vn 1.000000 -0.000025 -0.000000
vn 0.739932 0.672682 0.000000
vn 0.739931 0.672682 0.000000
vn 0.739931 0.672683 -0.000000
vn 0.739931 0.672683 0.000000
vn -0.052675 0.998612 0.000009
vn -0.052681 0.998611 0.000000
vn 1.000000 -0.000016 0.000000
vn 1.000000 -0.000015 0.000000
vn 0.000000 -1.000000 0.000000
vn 0.000000 -1.000000 0.000000
vn -0.958197 0.286109 0.000000
vn -0.958197 0.286109 -0.000000
vn -0.163038 0.986620 -0.000000
vn -0.359322 0.933213 0.000000
vn -0.052681 0.998611 0.000000
vn 0.739931 0.672682 -0.000000
vn 0.739931 0.672682 -0.000000
vn 0.000000 1.000000 0.000000
vn 0.000000 1.000000 0.000000
vn -0.030527 0.999534 -0.000000
vn -0.030527 0.999534 0.000000
vn -0.036617 0.999329 0.000000
vn -0.030527 0.999534 -0.000000
vn -0.036617 0.999329 -0.000000
vn -0.036617 0.999329 -0.000000
vn -0.030527 0.999534 -0.000000
vn 0.000000 1.000000 0.000000
vn 0.000000 1.000000 -0.000000
vn -0.030527 0.999534 -0.000000
vn 1.000000 0.000000 0.000001
vn 1.000000 0.000000 0.000001
vn 1.000000 0.000000 0.000001
vn 1.000000 0.000000 0.000001
vn 1.000000 0.000000 -0.000000
vn 1.000000 0.000000 -0.000000
vn 1.000000 0.000000 -0.000000
vn 1.000000 0.000000 -0.000000
vn 1.000000 0.000000 -0.000002
vn 1.000000 0.000000 -0.000002
vn 1.000000 0.000000 -0.000002
vn 1.000000 0.000000 -0.000002
vn 1.000000 0.000000 0.000000
vn 1.000000 0.000000 0.000000
vn 1.000000 0.000000 0.000000
vn 1.000000 0.000000 0.000000
vn -0.036617 0.999329 0.000000
vn 0.000000 1.000000 0.000000
vn -0.036617 0.999329 -0.000000
vn 1.000000 0.000000 0.000000
vn 1.000000 0.000000 0.000000
vn 1.000000 0.000000 0.000000
vn 1.000000 0.000000 0.000000
vn 1.000000 0.000000 0.000000
vn 1.000000 0.000000 0.000000
vn 1.000000 0.000000 0.000000
vn 1.000000 0.000000 0.000000
vn 1.000000 0.000000 0.000000
vn 1.000000 0.000000 0.000000
vn 1.000000 0.000000 0.000000
vn 1.000000 0.000000 0.000000
vn 1.000000 0.000000 0.000000
vn 1.000000 0.000000 0.000000
vn 1.000000 0.000000 0.000000
vn 1.000000 0.000000 0.000000
vn 0.000000 0.000000 0.000000
vn 0.000000 0.000000 0.000000
vn 0.000000 0.000000 0.000000
vn 0.000000 0.000000 0.000000
vn 0.000000 0.000000 0.000000
vn 0.000000 0.000000 0.000000
vn 0.000000 0.000000 0.000000
vn 0.000000 0.000000 0.000000
vn 0.000000 0.000000 0.000000
vn 0.000000 0.000000 0.000000
vn 0.000000 0.000000 0.000000
vn 0.000000 0.000000 0.000000
vn 0.000000 0.000000 0.000000
vn 0.000000 0.000000 0.000000
vn 0.000000 0.000000 0.000000
vn 0.000000 0.000000 0.000000
vn 0.000000 -1.000000 0.000000
vn 0.000000 -1.000000 0.000000
vn 0.000000 -1.000000 0.000000
vn 0.000000 -1.000000 0.000000
vn 0.000000 -1.000000 0.000000
vn 0.000000 -1.000000 0.000000
vn 0.000000 -1.000000 0.000000
vn 0.000000 -1.000000 0.000000
vn 0.000000 -1.000000 0.000000
vn 0.000000 -1.000000 0.000000
vn 0.000000 -1.000000 0.000000
vn 0.000000 -1.000000 0.000000
vn 0.000000 -1.000000 0.000000
vn 0.000000 -1.000000 0.000000
vn 0.000000 -1.000000 0.000000
vn 0.000000 -1.000000 0.000000
vn 0.739931 0.672682 0.000000
vn 0.739931 0.672682 -0.000000
vn 0.739931 0.672682 0.000000
vn 0.739931 0.672682 -0.000000
vn -0.052681 0.998611 0.000000
vn -0.052681 0.998611 -0.000000
vn -0.163038 0.986620 0.000000
vn -0.163038 0.986620 -0.000000
vn -0.958197 0.286109 0.000000
vn -0.958197 0.286109 -0.000000
vn -0.958197 0.286109 -0.000000
vn -0.958197 0.286109 -0.000000
vn 0.000000 -1.000000 0.000000
vn 0.000000 -1.000000 0.000000
vn 0.000000 -1.000000 0.000000
vn 0.000000 -1.000000 0.000000
vn 1.000000 -0.000016 0.000000
vn 1.000000 -0.000022 -0.000000
vn 1.000000 -0.000016 0.000000
vn 1.000000 -0.000021 -0.000000
vn -0.359323 0.933213 0.000000
vn -0.359322 0.933213 -0.000000
vn -0.162900 0.986643 -0.000134
vn -0.359501 0.933145 -0.000199
vn -0.163270 0.986582 -0.000195
vn -0.360507 0.932757 0.000000
vn -0.958197 0.286109 0.000000
vn -0.958197 0.286109 0.000000
vn -0.958197 0.286109 0.000000
vn -0.958197 0.286109 0.000000
vn 0.000000 -1.000000 0.000000
vn 0.000000 -1.000000 0.000000
vn 0.000000 -1.000000 0.000000
vn 0.000000 -1.000000 0.000000
vn 1.000000 -0.000024 0.000000
vn 1.000000 -0.000026 0.000000
vn 1.000000 -0.000024 0.000000
vn 1.000000 -0.000025 0.000000
vn 0.739932 0.672682 -0.000000
vn 0.739931 0.672683 0.000000
vn 0.739931 0.672682 -0.000000
vn 0.739931 0.672683 0.000000
vn -0.052681 0.998611 -0.000000
vn -0.052675 0.998612 -0.000009
vn 1.000000 -0.000016 -0.000000
vn 1.000000 -0.000015 0.000000
vn 0.000000 -1.000000 0.000000
vn 0.000000 -1.000000 0.000000
vn -0.958197 0.286109 -0.000000
vn -0.958197 0.286109 0.000000
vn -0.163038 0.986620 0.000000
vn -0.359322 0.933213 -0.000000
vn -0.052681 0.998611 -0.000000
vn 0.739931 0.672682 0.000000
vn 0.739931 0.672682 0.000000
vn 0.000000 1.000000 0.000000
vn -0.030527 0.999534 0.000000
vn 0.000000 1.000000 -0.000000
vn -0.030527 0.999534 -0.000000
vn -0.036617 0.999329 0.000000
vn -0.036617 0.999329 0.000000
vn -0.030527 0.999534 0.000000
vn -0.036617 0.999329 0.000000
vn -0.030527 0.999534 -0.000000
vn 0.000000 1.000000 0.000000
vn -0.030527 0.999534 -0.000000
vn 0.000000 1.000000 0.000000
vn 1.000000 0.000000 -0.000001
vn 1.000000 0.000000 -0.000001
vn 1.000000 0.000000 -0.000001
vn 1.000000 0.000000 -0.000001
vn 1.000000 0.000000 0.000000
vn 1.000000 0.000000 0.000000
vn 1.000000 0.000000 0.000000
vn 1.000000 0.000000 0.000000
vn 1.000000 0.000000 0.000002
vn 1.000000 0.000000 0.000002
vn 1.000000 0.000000 0.000002
vn 1.000000 0.000000 0.000002
vn 1.000000 0.000000 0.000000
vn 1.000000 0.000000 0.000000
vn 1.000000 0.000000 0.000000
vn 1.000000 0.000000 0.000000
vn -0.036617 0.999329 0.000000
vn 0.000000 1.000000 0.000000
vn -0.036617 0.999329 -0.000000
vn 1.000000 0.000000 0.000000
vn 1.000000 0.000000 0.000000
vn 1.000000 0.000000 0.000000
vn 1.000000 0.000000 0.000000
vn 1.000000 0.000000 0.000000
vn 1.000000 0.000000 0.000000
vn 1.000000 0.000000 0.000000
vn 1.000000 0.000000 0.000000
vn 1.000000 0.000000 0.000000
vn 1.000000 0.000000 0.000000
vn 1.000000 0.000000 0.000000
vn 1.000000 0.000000 0.000000
vn 1.000000 0.000000 0.000000
vn 1.000000 0.000000 0.000000
vn 1.000000 0.000000 0.000000
vn 1.000000 0.000000 0.000000
vn 0.000000 0.000000 0.000000
vn 0.000000 0.000000 0.000000
vn 0.000000 0.000000 0.000000
vn 0.000000 0.000000 0.000000
vn 0.000000 0.000000 0.000000
vn 0.000000 0.000000 0.000000
vn 0.000000 0.000000 0.000000
vn 0.000000 0.000000 0.000000
vn 0.000000 0.000000 0.000000
vn 0.000000 0.000000 0.000000
vn 0.000000 0.000000 0.000000
vn 0.000000 0.000000 0.000000
vn 0.000000 0.000000 0.000000
vn 0.000000 0.000000 0.000000
vn 0.000000 0.000000 0.000000
vn 0.000000 0.000000 0.000000
vn 0.000000 -1.000000 0.000000
vn 0.000000 -1.000000 0.000000
vn 0.000000 -1.000000 0.000000
vn 0.000000 -1.000000 0.000000
vn 0.000000 -1.000000 0.000000
vn 0.000000 -1.000000 0.000000
vn 0.000000 -1.000000 0.000000
vn 0.000000 -1.000000 0.000000
vn 0.000000 -1.000000 0.000000
vn 0.000000 -1.000000 0.000000
vn 0.000000 -1.000000 0.000000
vn 0.000000 -1.000000 0.000000
vn 0.000000 -1.000000 0.000000
vn 0.000000 -1.000000 0.000000
vn 0.000000 -1.000000 0.000000
vn 0.000000 -1.000000 0.000000
s 1
usemtl initialShadingGroup
f 27/46/1 28/47/2 35/60/3
f 35/60/3 28/47/2 34/57/4
s 2
f 35/59/5 29/49/6 27/45/7
f 27/45/7 29/49/6 26/44/8
s 3
f 30/50/9 31/53/10 25/42/11
f 25/42/11 31/53/10 24/41/12
s 4
f 31/52/13 32/55/14 24/40/15
f 24/40/15 32/55/14 23/39/16
s 5
f 32/54/17 33/56/18 23/38/19
f 23/38/19 33/56/18 22/37/20
s 2
f 29/49/6 30/51/21 26/44/8
f 26/44/8 30/51/21 25/43/22
f 3/12/23 16/27/24 7/5/25
f 7/5/25 16/27/24 15/25/26
s 3
f 3/6/27 4/7/28 16/26/29
f 16/26/29 4/7/28 17/29/30
s 4
f 4/8/31 5/9/32 17/28/33
f 17/28/33 5/9/32 18/31/34
s 5
f 5/10/35 6/11/36 18/30/37
f 18/30/37 6/11/36 19/32/38
s 1
f 21/36/39 20/33/40 2/3/41
f 2/3/41 20/33/40 1/2/42
s 2
f 7/5/25 15/25/26 2/4/43
f 2/4/43 15/25/26 21/35/44
s 5
f 23/38/19 22/37/20 9/14/45
f 9/14/45 22/37/20 8/13/46
s 4
f 24/40/15 23/39/16 10/16/47
f 10/16/47 23/39/16 9/15/48
s 3
f 25/42/11 24/41/12 11/18/49
f 11/18/49 24/41/12 10/17/50
s 2
f 26/44/8 25/43/22 12/20/51
f 12/20/51 25/43/22 11/19/52
f 27/45/7 26/44/8 13/21/53
f 13/21/53 26/44/8 12/20/51
s 1
f 13/22/54 14/23/55 27/46/1
f 27/46/1 14/23/55 28/47/2
s 2
f 15/25/26 16/27/24 29/49/6
f 29/49/6 16/27/24 30/51/21
s 3
f 16/26/29 17/29/30 30/50/9
f 30/50/9 17/29/30 31/53/10
s 4
f 17/28/33 18/31/34 31/52/13
f 31/52/13 18/31/34 32/55/14
s 5
f 18/30/37 19/32/38 32/54/17
f 32/54/17 19/32/38 33/56/18
s 1
f 35/60/3 34/57/4 21/36/39
f 21/36/39 34/57/4 20/33/40
s 2
f 21/35/44 15/25/26 35/59/5
f 35/59/5 15/25/26 29/49/6
s 11
f 37/62/56 36/61/57 49/85/58
f 49/85/58 36/61/57 46/82/59
f 34/58/60 50/86/61 20/34/62
f 20/34/62 50/86/61 49/85/58
f 28/48/63 48/84/64 34/58/60
f 34/58/60 48/84/64 50/86/61
f 40/65/65 39/64/66 47/83/67
f 47/83/67 39/64/66 48/84/64
s 15
f 36/66/68 37/67/69 41/69/70
f 41/69/70 37/67/69 42/68/71
s 16
f 37/70/72 38/71/73 42/73/74
f 42/73/74 38/71/73 43/72/75
s 17
f 38/74/76 39/75/77 43/77/78
f 43/77/78 39/75/77 44/76/79
s 18
f 39/78/80 40/79/81 44/81/82
f 44/81/82 40/79/81 45/80/83
s 11
f 49/85/58 46/82/59 20/34/62
f 20/34/62 46/82/59 1/1/84
f 49/85/58 50/86/61 37/62/56
f 37/62/56 50/86/61 38/63/85
f 50/86/61 48/84/64 38/63/85
f 38/63/85 48/84/64 39/64/66
f 47/83/67 48/84/64 14/24/86
f 14/24/86 48/84/64 28/48/63
s 19
f 8/87/87 22/88/88 51/90/89
f 51/90/89 22/88/88 52/89/90
s 20
f 19/91/91 6/92/92 53/94/93
f 53/94/93 6/92/92 54/93/94
s 21
f 22/95/95 33/96/96 52/98/97
f 52/98/97 33/96/96 55/97/98
s 22
f 33/99/99 19/100/100 55/102/101
f 55/102/101 19/100/100 53/101/102
s 23
f 56/106/103 51/103/104 57/105/105
f 51/103/104 52/104/106 57/105/105
s 24
f 58/110/107 53/107/108 59/109/109
f 53/107/108 54/108/110 59/109/109
s 25
f 57/114/111 52/111/112 60/113/113
f 52/111/112 55/112/114 60/113/113
s 26
f 60/118/115 55/115/116 58/117/117
f 55/115/116 53/116/118 58/117/117
s 27
f 51/119/119 52/120/120 61/122/121
f 61/122/121 52/120/120 62/121/122
s 28
f 53/123/123 54/124/124 63/126/125
f 63/126/125 54/124/124 64/125/126
s 29
f 52/127/127 55/128/128 62/130/129
f 62/130/129 55/128/128 65/129/130
s 30
f 55/131/131 53/132/132 65/134/133
f 65/134/133 53/132/132 63/133/134
s 31
f 92/135/135 100/138/136 93/136/137
f 93/136/137 100/138/136 99/137/138
s 32
f 100/139/139 92/142/140 94/140/141
f 94/140/141 92/142/140 91/141/142
s 33
f 95/143/143 90/146/144 96/144/145
f 96/144/145 90/146/144 89/145/146
s 34
f 96/147/147 89/150/148 97/148/149
f 97/148/149 89/150/148 88/149/150
s 35
f 97/151/151 88/154/152 98/152/153
f 98/152/153 88/154/152 87/153/154
s 32
f 94/140/141 91/141/142 95/155/155
f 95/155/155 91/141/142 90/156/156
f 80/160/157 81/159/158 72/157/159
f 72/157/159 81/159/158 68/158/160
s 33
f 68/161/161 81/164/162 69/162/163
f 69/162/163 81/164/162 82/163/164
s 34
f 69/165/165 82/168/166 70/166/167
f 70/166/167 82/168/166 83/167/168
s 35
f 70/169/169 83/172/170 71/170/171
f 71/170/171 83/172/170 84/171/172
s 31
f 86/173/173 67/176/174 85/174/175
f 85/174/175 67/176/174 66/175/176
s 32
f 86/178/177 80/160/157 67/177/178
f 67/177/178 80/160/157 72/157/159
s 35
f 88/154/152 74/180/179 87/153/154
f 87/153/154 74/180/179 73/179/180
s 34
f 89/150/148 75/182/181 88/149/150
f 88/149/150 75/182/181 74/181/182
s 33
f 90/146/144 76/184/183 89/145/146
f 89/145/146 76/184/183 75/183/184
s 32
f 91/141/142 77/186/185 90/156/156
f 90/156/156 77/186/185 76/185/186
f 92/142/140 78/187/187 91/141/142
f 91/141/142 78/187/187 77/186/185
s 31
f 78/188/188 92/135/135 79/189/189
f 79/189/189 92/135/135 93/136/137
s 32
f 80/160/157 94/140/141 81/159/158
f 81/159/158 94/140/141 95/155/155
s 33
f 81/164/162 95/143/143 82/163/164
f 82/163/164 95/143/143 96/144/145
s 34
f 82/168/166 96/147/147 83/167/168
f 83/167/168 96/147/147 97/148/149
s 35
f 83/172/170 97/151/151 84/171/172
f 84/171/172 97/151/151 98/152/153
s 31
f 100/138/136 86/173/173 99/137/138
f 99/137/138 86/173/173 85/174/175
s 32
f 86/178/177 100/139/139 80/160/157
f 80/160/157 100/139/139 94/140/141
s 42
f 102/190/190 114/193/191 101/191/192
f 101/191/192 114/193/191 111/192/193
f 99/194/194 85/196/195 115/195/196
f 115/195/196 85/196/195 114/193/191
f 93/197/197 99/194/194 113/198/198
f 113/198/198 99/194/194 115/195/196
f 105/199/199 112/201/200 104/200/201
f 104/200/201 112/201/200 113/198/198
s 45
f 101/202/202 106/205/203 102/203/204
f 102/203/204 106/205/203 107/204/205
s 46
f 102/206/206 107/209/207 103/207/208
f 103/207/208 107/209/207 108/208/209
s 47
f 103/210/210 108/213/211 104/211/212
f 104/211/212 108/213/211 109/212/213
s 48
f 104/214/214 109/217/215 105/215/216
f 105/215/216 109/217/215 110/216/217
s 42
f 114/193/191 85/196/195 111/192/193
f 111/192/193 85/196/195 66/218/218
f 114/193/191 102/190/190 115/195/196
f 115/195/196 102/190/190 103/219/219
f 115/195/196 103/219/219 113/198/198
f 113/198/198 103/219/219 104/200/201
f 112/201/200 79/220/220 113/198/198
f 113/198/198 79/220/220 93/197/197
s 49
f 73/221/221 116/224/222 87/222/223
f 87/222/223 116/224/222 117/223/224
s 50
f 84/225/225 118/228/226 71/226/227
f 71/226/227 118/228/226 119/227/228
s 51
f 87/229/229 117/232/230 98/230/231
f 98/230/231 117/232/230 120/231/232
s 52
f 98/233/233 120/236/234 84/234/235
f 84/234/235 120/236/234 118/235/236
s 53
f 117/238/237 116/237/238 122/239/239
f 116/237/238 121/240/240 122/239/239
s 54
f 119/242/241 118/241/242 124/243/243
f 118/241/242 123/244/244 124/243/243
s 55
f 120/246/245 117/245/246 125/247/247
f 117/245/246 122/248/248 125/247/247
s 56
f 118/250/249 120/249/250 123/251/251
f 120/249/250 125/252/252 123/251/251
s 57
f 116/253/253 126/256/254 117/254/255
f 117/254/255 126/256/254 127/255/256
s 58
f 118/257/257 128/260/258 119/258/259
f 119/258/259 128/260/258 129/259/260
s 59
f 117/261/261 127/264/262 120/262/263
f 120/262/263 127/264/262 130/263/264
s 60
f 120/265/265 130/268/266 118/266/267
f 118/266/267 130/268/266 128/267/268
