# This file uses centimeters as units for non-parametric coordinates.

mtllib screenChassis.mtl
g default
v 171.860046 376.942078 -300.420410
v 196.262360 376.942078 -300.420410
v 171.860046 -9.874081 -300.420410
v 196.262360 -9.874081 -300.420410
v 171.860046 376.942047 0.000000
v 196.262360 376.942047 0.000000
v 171.860046 -9.874193 -234.535202
v 196.262360 -9.874193 -234.535202
v 196.262360 376.942047 -238.095764
v 171.860046 376.942047 -238.095764
v 171.860046 35.214813 0.000000
v 171.860046 35.214684 -234.535202
v 171.860046 35.214684 -300.420410
v 196.262360 35.214684 -300.420410
v 196.262360 35.214813 -234.535202
v 196.262360 35.214684 0.000000
v 171.860046 -9.874193 -267.289551
v 196.262360 -9.874193 -267.289551
v 196.262360 35.214767 -267.289551
v 196.262360 376.942047 -267.289551
v 171.860046 376.942047 -267.289551
v 171.860046 35.214684 -267.289551
v 171.860046 335.545441 -0.000001
v 171.860046 335.545441 -238.095764
v 171.860046 335.545441 -267.289551
v 171.860046 335.545441 -300.420410
v 196.262360 335.545441 -300.420410
v 196.262360 335.545441 -267.289551
v 196.262360 335.545441 -238.095764
v 196.262360 335.545441 -0.000001
v 171.860046 69.645622 0.000000
v 196.262360 69.645630 -238.095764
v 196.262360 69.645622 -267.289551
v 171.860046 69.645622 -238.095764
v 171.860046 69.645622 -267.289551
v 171.860046 69.645622 -300.420410
v 196.262360 69.645622 -300.420410
v 196.262360 69.645622 0.000000
v 171.860046 376.942078 300.420410
v 196.262360 376.942078 300.420410
v 171.860046 -9.874081 300.420410
v 196.262360 -9.874081 300.420410
v 171.860046 376.942047 0.000000
v 196.262360 376.942047 0.000000
v 171.860046 -9.874193 234.535202
v 196.262360 -9.874193 234.535202
v 196.262360 376.942047 238.095764
v 171.860046 376.942047 238.095764
v 171.860046 35.214813 -0.000000
v 171.860046 35.214684 234.535202
v 171.860046 35.214684 300.420410
v 196.262360 35.214684 300.420410
v 196.262360 35.214813 234.535202
v 196.262360 35.214684 -0.000000
v 171.860046 -9.874193 267.289551
v 196.262360 -9.874193 267.289551
v 196.262360 35.214767 267.289551
v 196.262360 376.942047 267.289551
v 171.860046 376.942047 267.289551
v 171.860046 35.214684 267.289551
v 171.860046 335.545441 0.000001
v 171.860046 335.545441 238.095764
v 171.860046 335.545441 267.289551
v 171.860046 335.545441 300.420410
v 196.262360 335.545441 300.420410
v 196.262360 335.545441 267.289551
v 196.262360 335.545441 238.095764
v 196.262360 335.545441 0.000001
v 171.860046 69.645622 -0.000000
v 196.262360 69.645630 238.095764
v 196.262360 69.645622 267.289551
v 171.860046 69.645622 238.095764
v 171.860046 69.645622 267.289551
v 171.860046 69.645622 300.420410
v 196.262360 69.645622 300.420410
v 196.262360 69.645622 -0.000000
vt 0.149032 0.000000
vt 0.850968 0.000000
vt 0.375000 0.734735
vt 0.625000 0.734735
vt 0.625000 0.750000
vt 0.375000 0.750000
vt 0.859592 0.000000
vt 0.859592 0.015265
vt 0.850968 0.015265
vt 0.140408 0.015265
vt 0.140408 0.000000
vt 0.149032 0.015265
vt 0.149032 0.226461
vt 0.140408 0.226461
vt 0.140408 0.029660
vt 0.149032 0.029660
vt 0.375000 0.523539
vt 0.625000 0.523539
vt 0.625000 0.720340
vt 0.375000 0.720340
vt 0.859592 0.226461
vt 0.850968 0.226461
vt 0.850968 0.029660
vt 0.859592 0.029660
vt 0.750000 0.226461
vt 0.750000 0.029660
vt 0.875000 0.015265
vt 0.875000 0.000000
vt 0.875000 0.226461
vt 0.875000 0.029660
vt 0.750000 0.375000
vt 0.250000 0.375000
vt 0.125000 0.015265
vt 0.125000 0.029660
vt 0.125000 0.000000
vt 0.149032 0.250000
vt 0.250000 0.226461
vt 0.250000 0.250000
vt 0.140408 0.250000
vt 0.125000 0.226461
vt 0.859592 0.250000
vt 0.850968 0.250000
vt 0.750000 0.250000
vt 0.250000 0.029660
vt 0.250000 0.015265
vt 0.750000 0.015265
vt 0.375000 0.734735
vt 0.625000 0.734735
vt 0.625000 0.750000
vt 0.375000 0.750000
vt 0.859592 0.000000
vt 0.859592 0.015265
vt 0.850968 0.015265
vt 0.850968 0.000000
vt 0.140408 0.015265
vt 0.140408 0.000000
vt 0.149032 0.000000
vt 0.149032 0.015265
vt 0.140408 0.226461
vt 0.140408 0.029660
vt 0.149032 0.029660
vt 0.149032 0.226461
vt 0.375000 0.523539
vt 0.625000 0.523539
vt 0.625000 0.720340
vt 0.375000 0.720340
vt 0.859592 0.226461
vt 0.850968 0.226461
vt 0.850968 0.029660
vt 0.859592 0.029660
vt 0.750000 0.226461
vt 0.750000 0.029660
vt 0.875000 0.015265
vt 0.875000 0.000000
vt 0.875000 0.226461
vt 0.875000 0.029660
vt 0.125000 0.015265
vt 0.125000 0.029660
vt 0.125000 0.000000
vt 0.149032 0.250000
vt 0.250000 0.226461
vt 0.250000 0.250000
vt 0.140408 0.250000
vt 0.125000 0.226461
vt 0.250000 0.375000
vt 0.750000 0.375000
vt 0.859592 0.250000
vt 0.850968 0.250000
vt 0.750000 0.250000
vt 0.250000 0.029660
vt 0.250000 0.015265
vt 0.750000 0.015265
vn 0.000000 0.000000 -1.000000
vn 0.000000 0.000000 -1.000000
vn 0.000000 0.000000 -1.000000
vn 0.000000 0.000000 -1.000000
vn 1.000000 0.000000 0.000000
vn 1.000000 0.000000 0.000000
vn 1.000000 0.000000 0.000000
vn 1.000000 -0.000000 0.000000
vn -1.000000 -0.000000 0.000000
vn -1.000000 0.000000 0.000000
vn -1.000000 -0.000000 0.000000
vn -1.000000 0.000000 0.000000
vn -1.000000 0.000000 0.000000
vn -1.000000 0.000000 0.000000
vn -1.000000 -0.000000 0.000000
vn -1.000000 -0.000000 0.000000
vn 0.000000 0.000000 -1.000000
vn 0.000000 0.000000 -1.000000
vn 0.000000 0.000000 -1.000000
vn 0.000000 0.000000 -1.000000
vn 1.000000 0.000000 0.000000
vn 1.000000 0.000000 0.000000
vn 1.000000 0.000000 0.000000
vn 1.000000 -0.000000 0.000000
vn 1.000000 0.000000 0.000000
vn 1.000000 -0.000000 0.000000
vn 1.000000 0.000000 0.000000
vn 1.000000 0.000000 0.000000
vn 1.000000 0.000000 0.000000
vn 1.000000 0.000000 0.000000
vn -1.000000 0.000000 0.000000
vn -1.000000 0.000000 0.000000
vn -1.000000 0.000000 0.000000
vn -1.000000 0.000000 0.000000
vn -1.000000 -0.000000 0.000000
vn -1.000000 -0.000000 0.000000
vn -1.000000 0.000000 0.000000
vn -1.000000 0.000000 0.000000
vn -1.000000 0.000000 0.000000
vn 0.000000 0.000000 -1.000000
vn 0.000000 0.000000 -1.000000
vn 1.000000 0.000000 0.000000
vn 1.000000 0.000000 0.000000
vn 1.000000 0.000000 0.000000
vn 1.000000 0.000000 0.000000
vn -1.000000 0.000000 0.000000
vn -1.000000 0.000000 0.000000
vn 1.000000 0.000000 0.000000
vn 0.000000 0.000000 1.000000
vn 0.000000 0.000000 1.000000
vn 0.000000 0.000000 1.000000
vn 0.000000 0.000000 1.000000
vn 1.000000 0.000000 0.000000
vn 1.000000 0.000000 0.000000
vn 1.000000 -0.000000 0.000000
vn 1.000000 -0.000000 0.000000
vn -1.000000 0.000000 0.000000
vn -1.000000 0.000000 0.000000
vn -1.000000 0.000000 0.000000
vn -1.000000 0.000000 0.000000
vn -1.000000 0.000000 0.000000
vn -1.000000 0.000000 0.000000
vn -1.000000 0.000000 0.000000
vn -1.000000 0.000000 0.000000
vn 0.000000 0.000000 1.000000
vn 0.000000 0.000000 1.000000
vn 0.000000 0.000000 1.000000
vn 0.000000 0.000000 1.000000
vn 1.000000 0.000000 0.000000
vn 1.000000 0.000000 0.000000
vn 1.000000 0.000000 0.000000
vn 1.000000 -0.000000 0.000000
vn 1.000000 0.000000 0.000000
vn 1.000000 -0.000000 0.000000
vn 1.000000 0.000000 0.000000
vn 1.000000 0.000000 0.000000
vn 1.000000 0.000000 0.000000
vn 1.000000 0.000000 0.000000
vn -1.000000 0.000000 0.000000
vn -1.000000 0.000000 0.000000
vn -1.000000 0.000000 0.000000
vn -1.000000 0.000000 0.000000
vn -1.000000 0.000000 0.000000
vn -1.000000 0.000000 0.000000
vn -1.000000 0.000000 0.000000
vn -1.000000 0.000000 0.000000
vn -1.000000 0.000000 0.000000
vn 0.000000 0.000000 1.000000
vn 0.000000 0.000000 1.000000
vn 1.000000 0.000000 0.000000
vn 1.000000 0.000000 0.000000
vn 1.000000 0.000000 0.000000
vn 1.000000 0.000000 0.000000
vn -1.000000 0.000000 0.000000
vn -1.000000 0.000000 0.000000
vn 1.000000 -0.000000 0.000000
s 1
usemtl initialShadingGroup
f 13/3/1 14/4/2 3/6/3
f 3/6/3 14/4/2 4/5/4
s 2
f 18/7/5 19/8/6 8/2/7
f 8/2/7 19/8/6 15/9/8
s 3
f 22/10/9 17/11/10 12/12/11
f 12/12/11 17/11/10 7/1/12
f 25/14/13 35/15/14 24/13/15
f 24/13/15 35/15/14 34/16/16
s 1
f 26/17/17 27/18/18 36/20/19
f 36/20/19 27/18/18 37/19/20
s 2
f 28/21/21 29/22/22 33/24/23
f 33/24/23 29/22/22 32/23/24
f 29/22/22 30/25/25 32/23/24
f 32/23/24 30/25/25 38/26/26
f 14/27/27 19/8/6 4/28/28
f 4/28/28 19/8/6 18/7/5
f 27/29/29 28/21/21 37/30/30
f 37/30/30 28/21/21 33/24/23
s 3
f 13/33/31 22/10/9 36/34/32
f 36/34/32 22/10/9 35/15/14
f 3/35/33 17/11/10 13/33/31
f 13/33/31 17/11/10 22/10/9
f 10/36/34 24/13/15 5/38/35
f 5/38/35 24/13/15 23/37/36
f 10/36/34 21/39/37 24/13/15
f 24/13/15 21/39/37 25/14/13
f 26/40/38 25/14/13 1/32/39
f 1/32/39 25/14/13 21/39/37
s 1
f 1/32/40 2/31/41 26/17/17
f 26/17/17 2/31/41 27/18/18
s 2
f 20/41/42 28/21/21 2/31/43
f 2/31/43 28/21/21 27/29/29
f 9/42/44 29/22/22 20/41/42
f 20/41/42 29/22/22 28/21/21
f 6/43/45 30/25/25 9/42/44
f 9/42/44 30/25/25 29/22/22
s 3
f 34/16/16 12/12/11 31/44/46
f 31/44/46 12/12/11 11/45/47
f 35/15/14 22/10/9 34/16/16
f 34/16/16 22/10/9 12/12/11
s 1
f 36/20/19 37/19/20 13/3/1
f 13/3/1 37/19/20 14/4/2
s 2
f 33/24/23 32/23/24 19/8/6
f 19/8/6 32/23/24 15/9/8
f 32/23/24 38/26/26 15/9/8
f 15/9/8 38/26/26 16/46/48
f 37/30/30 33/24/23 14/27/27
f 14/27/27 33/24/23 19/8/6
s 3
f 36/34/32 35/15/14 26/40/38
f 26/40/38 35/15/14 25/14/13
s 10
f 51/47/49 41/50/50 52/48/51
f 52/48/51 41/50/50 42/49/52
s 11
f 56/51/53 46/54/54 57/52/55
f 57/52/55 46/54/54 53/53/56
s 12
f 60/55/57 50/58/58 55/56/59
f 55/56/59 50/58/58 45/57/60
f 63/59/61 62/62/62 73/60/63
f 73/60/63 62/62/62 72/61/64
s 10
f 64/63/65 74/66/66 65/64/67
f 65/64/67 74/66/66 75/65/68
s 11
f 66/67/69 71/70/70 67/68/71
f 67/68/71 71/70/70 70/69/72
f 67/68/71 70/69/72 68/71/73
f 68/71/73 70/69/72 76/72/74
f 52/73/75 42/74/76 57/52/55
f 57/52/55 42/74/76 56/51/53
f 65/75/77 75/76/78 66/67/69
f 66/67/69 75/76/78 71/70/70
s 12
f 51/77/79 74/78/80 60/55/57
f 60/55/57 74/78/80 73/60/63
f 41/79/81 51/77/79 55/56/59
f 55/56/59 51/77/79 60/55/57
f 48/80/82 43/82/83 62/62/62
f 62/62/62 43/82/83 61/81/84
f 48/80/82 62/62/62 59/83/85
f 59/83/85 62/62/62 63/59/61
f 64/84/86 39/85/87 63/59/61
f 63/59/61 39/85/87 59/83/85
s 10
f 39/85/88 64/63/65 40/86/89
f 40/86/89 64/63/65 65/64/67
s 11
f 58/87/90 40/86/91 66/67/69
f 66/67/69 40/86/91 65/75/77
f 47/88/92 58/87/90 67/68/71
f 67/68/71 58/87/90 66/67/69
f 44/89/93 47/88/92 68/71/73
f 68/71/73 47/88/92 67/68/71
s 12
f 49/91/94 50/58/58 69/90/95
f 69/90/95 50/58/58 72/61/64
f 73/60/63 72/61/64 60/55/57
f 60/55/57 72/61/64 50/58/58
s 10
f 74/66/66 51/47/49 75/65/68
f 75/65/68 51/47/49 52/48/51
s 11
f 71/70/70 57/52/55 70/69/72
f 70/69/72 57/52/55 53/53/56
f 70/69/72 53/53/56 76/72/74
f 76/72/74 53/53/56 54/92/96
f 75/76/78 52/73/75 71/70/70
f 71/70/70 52/73/75 57/52/55
s 12
f 74/78/80 64/84/86 73/60/63
f 73/60/63 64/84/86 63/59/61
