0
SECTION
2
HEADER
9
$INSUNITS
70
5
9
$ACADVER
1
AC1014
9
$HANDSEED
5
FFFF
0
ENDSEC
0
SECTION
2
TABLES
0
TABLE
2
VPORT
5
8
100
AcDbSymbolTable
0
ENDTAB
0
TABLE
2
LTYPE
5
5
100
AcDbSymbolTable
0
LTYPE
5
14
100
AcDbSymbolTableRecord
100
AcDbLinetypeTableRecord
2
BYBLOCK
70
0
0
LTYPE
5
15
100
AcDbSymbolTableRecord
100
AcDbLinetypeTableRecord
2
BYLAYER
70
0
0
ENDTAB
0
TABLE
2
LAYER
5
2
100
AcDbSymbolTable
70
2
0
LAYER
5
50
100
AcDbSymbolTableRecord
100
AcDbLayerTableRecord
2
0
70
0
6
CONTINUOUS
0
ENDTAB
0
TABLE
2
STYLE
5
3
100
AcDbSymbolTable
70
1
0
STYLE
5
11
100
AcDbSymbolTableRecord
100
AcDbTextStyleTableRecord
2
STANDARD
70
0
0
ENDTAB
0
TABLE
2
VIEW
5
6
100
AcDbSymbolTable
70
0
0
ENDTAB
0
TABLE
2
UCS
5
7
100
AcDbSymbolTable
70
0
0
ENDTAB
0
TABLE
2
APPID
5
9
100
AcDbSymbolTable
70
2
0
APPID
5
12
100
AcDbSymbolTableRecord
100
AcDbRegAppTableRecord
2
ACAD
70
0
0
ENDTAB
0
TABLE
2
DIMSTYLE
5
A
100
AcDbSymbolTable
70
1
0
ENDTAB
0
TABLE
2
BLOCK_RECORD
5
1
100
AcDbSymbolTable
70
1
0
BLOCK_RECORD
5
1F
100
AcDbSymbolTableRecord
100
AcDbBlockTableRecord
2
*MODEL_SPACE
0
BLOCK_RECORD
5
1B
100
AcDbSymbolTableRecord
100
AcDbBlockTableRecord
2
*PAPER_SPACE
0
ENDTAB
0
ENDSEC
0
SECTION
2
BLOCKS
0
BLOCK
5
20
100
AcDbEntity
100
AcDbBlockBegin
2
*MODEL_SPACE
0
ENDBLK
5
21
100
AcDbEntity
100
AcDbBlockEnd
0
BLOCK
5
1C
100
AcDbEntity
100
AcDbBlockBegin
2
*PAPER_SPACE
0
ENDBLK
5
1D
100
AcDbEntity
100
AcDbBlockEnd
0
ENDSEC
0
SECTION
2
ENTITIES
0
LWPOLYLINE
5
100
100
AcDbEntity
8
0
100
AcDbPolyline
90
8
70
1
43
0.0
10
-22.000000000000011
20
-12.519072503832318
42
-0.41421356237309553
10
-21.000000000000007
20
-11.519072503832316
10
21.000000000000007
20
-11.519072503832312
42
-0.41421356237309293
10
22.000000000000004
20
-12.519072503832316
10
22.000000000000007
20
-17.500000275671482
42
-0.41421356237309193
10
21.000000000000011
20
-18.500000275671489
10
-21.000000000000011
20
-18.500000275671482
42
-0.41421356237309293
10
-22.000000000000011
20
-17.500000275671482
0
LWPOLYLINE
5
101
100
AcDbEntity
8
0
100
AcDbPolyline
90
2
70
1
43
0.0
10
18.153244304052659
20
-15.730111929361344
10
18.153244304052659
20
-15.770169219293681
42
99.846964682314749
0
CIRCLE
5
102
100
AcDbEntity
8
0
100
AcDbCircle
10
8.7430575170847289e-06
20
-15.51277843473636
30
0
40
1.2500000000000002
210
-1.7105694144590048e-49
220
6.1331265425734943e-82
230
1
0
LWPOLYLINE
5
103
100
AcDbEntity
8
0
100
AcDbPolyline
90
8
70
1
43
0.0
10
11.000008743057522
20
-15.456990112624204
10
11.000008743057522
20
-16.046990112624361
42
0.41421356237310542
10
11.05000874305753
20
-16.096990112624368
10
12.750008743057769
20
-16.096990112624226
42
0.4142135623730534
10
12.800008743057628
20
-16.046990112624368
10
12.800008743057525
20
-15.456990112624119
42
0.41421356237310542
10
12.750008743057522
20
-15.40699011262412
10
11.050008743057608
20
-15.406990112624117
42
0.41421356237310542
0
CIRCLE
5
104
100
AcDbEntity
8
0
100
AcDbCircle
10
-3.9999912569424838
20
-15.770000000000001
30
0
40
1.2500000000000002
210
0
220
-0
230
1
0
CIRCLE
5
105
100
AcDbEntity
8
0
100
AcDbCircle
10
-19.053991242650842
20
-15.750590167595178
30
0
40
1.1650000000000005
210
0
220
-5.5511151231257815e-17
230
1
0
CIRCLE
5
106
100
AcDbEntity
8
0
100
AcDbCircle
10
-7.9999912569424882
20
-15.770000000000001
30
0
40
1.2500000000000002
210
0
220
-0
230
1
0
CIRCLE
5
107
100
AcDbEntity
8
0
100
AcDbCircle
10
8.0000087430575206
20
-15.770000000000003
30
0
40
1.2500000000000002
210
0
220
-0
230
1
0
LWPOLYLINE
5
108
100
AcDbEntity
8
0
100
AcDbPolyline
90
8
70
1
43
0.0
10
14.823244304052659
20
-15.687193496811721
10
14.823244304052659
20
-15.767193496811718
42
0.41421356237310103
10
15.173244304052659
20
-16.117193496811719
10
15.803244304052658
20
-16.117193496811719
42
0.41421356237309653
10
16.153244304052659
20
-15.767193496811716
10
16.153244304052659
20
-15.687193496811719
42
0.41421356237309354
10
15.80324430405266
20
-15.337193496811722
10
15.173244304052659
20
-15.33719349681172
42
0.41421356237309354
0
LWPOLYLINE
5
109
100
AcDbEntity
8
0
100
AcDbPolyline
90
8
70
1
43
0.0
10
-14.823244959703754
20
-15.76719349681172
10
-14.823244959703754
20
-15.687193496811719
42
0.41421356237310103
10
-15.173244959703755
20
-15.337193496811729
10
-15.803244959703751
20
-15.33719349681172
42
0.41421356237309059
10
-16.153244959703752
20
-15.687193496811719
10
-16.153244959703752
20
-15.767193496811718
42
0.41421356237309503
10
-15.803244959703751
20
-16.117193496811723
10
-15.173244959703748
20
-16.117193496811719
42
0.4142135623730876
0
LWPOLYLINE
5
110
100
AcDbEntity
8
0
100
AcDbPolyline
90
8
70
1
43
0.0
10
-11.050009398708699
20
-15.406990112624122
10
-12.750009398708617
20
-15.40699011262412
42
0.41421356237309503
10
-12.800009398708614
20
-15.456990112624119
10
-12.800009398708614
20
-16.046990112624368
42
0.41421356237313667
10
-12.750009398708857
20
-16.096990112624127
10
-11.050009398708619
20
-16.096990112624226
42
0.41421356237311585
10
-11.000009398708757
20
-16.046990112624357
10
-11.000009398708615
20
-15.456990112624203
42
0.41421356237312623
0
CIRCLE
5
111
100
AcDbEntity
8
0
100
AcDbCircle
10
4.000008743057518
20
-15.770000000000003
30
0
40
1.2500000000000002
210
0
220
-0
230
1
0
LWPOLYLINE
5
112
100
AcDbEntity
8
0
100
AcDbPolyline
90
8
70
1
43
0.0
10
11.000008743057522
20
-15.456990112624204
10
11.000008743057522
20
-16.046990112624361
42
0.41421356237310542
10
11.05000874305753
20
-16.096990112624368
10
12.750008743057769
20
-16.096990112624226
42
0.4142135623730534
10
12.800008743057628
20
-16.046990112624368
10
12.800008743057525
20
-15.456990112624119
42
0.41421356237310542
10
12.750008743057522
20
-15.40699011262412
10
11.050008743057608
20
-15.406990112624117
42
0.41421356237310542
0
CIRCLE
5
113
100
AcDbEntity
8
0
100
AcDbCircle
10
-3.9999912569424838
20
-15.770000000000001
30
0
40
1.2500000000000002
210
0
220
-0
230
1
0
CIRCLE
5
114
100
AcDbEntity
8
0
100
AcDbCircle
10
-19.053991242650842
20
-15.750590167595178
30
0
40
1.1650000000000005
210
0
220
-5.5511151231257815e-17
230
1
0
CIRCLE
5
115
100
AcDbEntity
8
0
100
AcDbCircle
10
-7.9999912569424882
20
-15.770000000000001
30
0
40
1.2500000000000002
210
0
220
-0
230
1
0
CIRCLE
5
116
100
AcDbEntity
8
0
100
AcDbCircle
10
8.0000087430575206
20
-15.770000000000003
30
0
40
1.2500000000000002
210
0
220
-0
230
1
0
LWPOLYLINE
5
117
100
AcDbEntity
8
0
100
AcDbPolyline
90
8
70
1
43
0.0
10
14.823244304052659
20
-15.687193496811721
10
14.823244304052659
20
-15.767193496811718
42
0.41421356237310103
10
15.173244304052659
20
-16.117193496811719
10
15.803244304052658
20
-16.117193496811719
42
0.41421356237309653
10
16.153244304052659
20
-15.767193496811716
10
16.153244304052659
20
-15.687193496811719
42
0.41421356237309354
10
15.80324430405266
20
-15.337193496811722
10
15.173244304052659
20
-15.33719349681172
42
0.41421356237309354
0
CIRCLE
5
118
100
AcDbEntity
8
0
100
AcDbCircle
10
8.7430575170847289e-06
20
-15.51277843473636
30
0
40
1.2500000000000002
210
-1.7105694144590048e-49
220
6.1331265425734943e-82
230
1
0
LWPOLYLINE
5
119
100
AcDbEntity
8
0
100
AcDbPolyline
90
8
70
1
43
0.0
10
-14.823244959703754
20
-15.76719349681172
10
-14.823244959703754
20
-15.687193496811719
42
0.41421356237310103
10
-15.173244959703755
20
-15.337193496811729
10
-15.803244959703751
20
-15.33719349681172
42
0.41421356237309059
10
-16.153244959703752
20
-15.687193496811719
10
-16.153244959703752
20
-15.767193496811718
42
0.41421356237309503
10
-15.803244959703751
20
-16.117193496811723
10
-15.173244959703748
20
-16.117193496811719
42
0.4142135623730876
0
LWPOLYLINE
5
120
100
AcDbEntity
8
0
100
AcDbPolyline
90
8
70
1
43
0.0
10
-11.050009398708699
20
-15.406990112624122
10
-12.750009398708617
20
-15.40699011262412
42
0.41421356237309503
10
-12.800009398708614
20
-15.456990112624119
10
-12.800009398708614
20
-16.046990112624368
42
0.41421356237313667
10
-12.750009398708857
20
-16.096990112624127
10
-11.050009398708619
20
-16.096990112624226
42
0.41421356237311585
10
-11.000009398708757
20
-16.046990112624357
10
-11.000009398708615
20
-15.456990112624203
42
0.41421356237312623
0
CIRCLE
5
121
100
AcDbEntity
8
0
100
AcDbCircle
10
4.000008743057518
20
-15.770000000000003
30
0
40
1.2500000000000002
210
0
220
-0
230
1
0
LWPOLYLINE
5
122
100
AcDbEntity
8
0
100
AcDbPolyline
90
2
70
1
43
0.0
10
18.153244304052659
20
-15.730111929361344
10
18.153244304052659
20
-15.770169219293681
42
99.846964682314749
0
LWPOLYLINE
5
123
100
AcDbEntity
8
0
100
AcDbPolyline
90
8
70
1
43
0.0
10
-22.000000000000011
20
-12.519072503832318
42
-0.41421356237309553
10
-21.000000000000007
20
-11.519072503832316
10
21.000000000000007
20
-11.519072503832312
42
-0.41421356237309293
10
22.000000000000004
20
-12.519072503832316
10
22.000000000000007
20
-17.500000275671482
42
-0.41421356237309193
10
21.000000000000011
20
-18.500000275671489
10
-21.000000000000011
20
-18.500000275671482
42
-0.41421356237309293
10
-22.000000000000011
20
-17.500000275671482
0
ENDSEC
0
SECTION
2
OBJECTS
0
DICTIONARY
5
C
100
AcDbDictionary
3
ACAD_GROUP
350
D
3
ACAD_MLINESTYLE
350
17
0
DICTIONARY
5
D
100
AcDbDictionary
0
DICTIONARY
5
1A
330
C
100
AcDbDictionary
0
DICTIONARY
5
17
100
AcDbDictionary
0
ENDSEC
0
EOF
