0
SECTION
2
HEADER
9
$INSUNITS
70
5
9
$ACADVER
1
AC1014
9
$HANDSEED
5
FFFF
0
ENDSEC
0
SECTION
2
TABLES
0
TABLE
2
VPORT
5
8
100
AcDbSymbolTable
0
ENDTAB
0
TABLE
2
LTYPE
5
5
100
AcDbSymbolTable
0
LTYPE
5
14
100
AcDbSymbolTableRecord
100
AcDbLinetypeTableRecord
2
BYBLOCK
70
0
0
LTYPE
5
15
100
AcDbSymbolTableRecord
100
AcDbLinetypeTableRecord
2
BYLAYER
70
0
0
ENDTAB
0
TABLE
2
LAYER
5
2
100
AcDbSymbolTable
70
2
0
LAYER
5
50
100
AcDbSymbolTableRecord
100
AcDbLayerTableRecord
2
0
70
0
6
CONTINUOUS
0
ENDTAB
0
TABLE
2
STYLE
5
3
100
AcDbSymbolTable
70
1
0
STYLE
5
11
100
AcDbSymbolTableRecord
100
AcDbTextStyleTableRecord
2
STANDARD
70
0
0
ENDTAB
0
TABLE
2
VIEW
5
6
100
AcDbSymbolTable
70
0
0
ENDTAB
0
TABLE
2
UCS
5
7
100
AcDbSymbolTable
70
0
0
ENDTAB
0
TABLE
2
APPID
5
9
100
AcDbSymbolTable
70
2
0
APPID
5
12
100
AcDbSymbolTableRecord
100
AcDbRegAppTableRecord
2
ACAD
70
0
0
ENDTAB
0
TABLE
2
DIMSTYLE
5
A
100
AcDbSymbolTable
70
1
0
ENDTAB
0
TABLE
2
BLOCK_RECORD
5
1
100
AcDbSymbolTable
70
1
0
BLOCK_RECORD
5
1F
100
AcDbSymbolTableRecord
100
AcDbBlockTableRecord
2
*MODEL_SPACE
0
BLOCK_RECORD
5
1B
100
AcDbSymbolTableRecord
100
AcDbBlockTableRecord
2
*PAPER_SPACE
0
ENDTAB
0
ENDSEC
0
SECTION
2
BLOCKS
0
BLOCK
5
20
100
AcDbEntity
100
AcDbBlockBegin
2
*MODEL_SPACE
0
ENDBLK
5
21
100
AcDbEntity
100
AcDbBlockEnd
0
BLOCK
5
1C
100
AcDbEntity
100
AcDbBlockBegin
2
*PAPER_SPACE
0
ENDBLK
5
1D
100
AcDbEntity
100
AcDbBlockEnd
0
ENDSEC
0
SECTION
2
ENTITIES
0
LWPOLYLINE
5
100
100
AcDbEntity
8
0
100
AcDbPolyline
90
8
70
1
43
0.0
10
-17.906463711934904
20
25.965982874547134
10
19.326306375578426
20
25.965982874547134
42
-0.41421356237309503
10
21.326306375578422
20
23.965982874547137
10
21.326306375578422
20
-24.052363902230432
42
-0.41421356237309503
10
19.326306375578429
20
-26.052363902230429
10
-17.906463711934901
20
-26.052363902230429
42
-0.41421356237309503
10
-19.906463711934897
20
-24.052363902230432
10
-19.906463711934897
20
23.965982874547137
42
-0.41421356237309503
0
LWPOLYLINE
5
101
100
AcDbEntity
8
0
100
AcDbPolyline
90
8
70
1
43
0.0
10
11.871259849712835
20
21.271654990009381
10
-10.27825996386721
20
21.271654990009381
42
0.41421356237309503
10
-10.578259963867211
20
20.97165499000938
10
-10.578259963867211
20
14.330401829510087
42
0.41421356237309503
10
-8.578259963867211
20
12.330401829510087
10
13.571259849712838
20
12.330401829510087
42
0.41421356237309503
10
13.871259849712839
20
12.630401829510088
10
13.871259849712841
20
19.271654990009381
42
0.41421356237309581
0
LWPOLYLINE
5
102
100
AcDbEntity
8
0
100
AcDbPolyline
90
8
70
1
43
0.0
10
-5.2736700294175129
20
10.74387157456751
10
11.205692929123295
20
10.74387157456751
42
-0.41421356237309503
10
11.505692929123295
20
10.44387157456751
10
11.505692929123295
20
7.316706560688341
42
-0.41421356237309503
10
11.205692929123293
20
7.0167065606883412
10
-5.2736700294175112
20
7.0167065606883403
42
-0.41421356237309592
10
-5.5736700294175128
20
7.316706560688341
10
-5.5736700294175137
20
10.44387157456751
42
-0.41421356237309503
0
LWPOLYLINE
5
103
100
AcDbEntity
8
0
100
AcDbPolyline
90
8
70
1
43
0.0
10
16.123879072322531
20
21.270229312850585
10
17.585951537827203
20
21.270229312850589
42
-0.41421356237309159
10
17.885951537827207
20
20.970229312850588
10
17.885951537827204
20
18.398703774356083
42
-0.41421356237309853
10
17.585951537827203
20
18.098703774356078
10
16.123879072322534
20
18.098703774356078
42
-0.41421356237309853
10
15.82387907232253
20
18.398703774356079
10
15.82387907232253
20
20.970229312850584
42
-0.41421356237309503
0
LWPOLYLINE
5
104
100
AcDbEntity
8
0
100
AcDbPolyline
90
8
70
1
43
0.0
10
16.123879072322531
20
15.608109564875733
10
17.585951537827199
20
15.608109564875736
42
-0.41421356237308982
10
17.885951537827207
20
15.308109564875737
10
17.885951537827204
20
12.736584026381228
42
-0.41421356237310025
10
17.585951537827203
20
12.436584026381222
10
16.123879072322531
20
12.436584026381222
42
-0.41421356237309503
10
15.823879072322532
20
12.736584026381221
10
15.82387907232253
20
15.308109564875732
42
-0.41421356237309503
0
LWPOLYLINE
5
105
100
AcDbEntity
8
0
100
AcDbPolyline
90
8
70
1
43
0.0
10
17.005074314878978
20
-7.3299781926928524
10
18.428086655864615
20
-7.3299781926928498
42
-0.41421356237309503
10
18.628086655864617
20
-7.5299781926928517
10
18.628086655864614
20
-22.141773016191348
42
-0.41421356237309503
10
18.428086655864615
20
-22.341773016191347
10
17.005074314878978
20
-22.34177301619135
42
-0.41421356237309503
10
16.805074314878979
20
-22.141773016191351
10
16.805074314878979
20
-7.5299781926928544
42
-0.41421356237309764
0
LWPOLYLINE
5
106
100
AcDbEntity
8
0
100
AcDbPolyline
90
8
70
1
43
0.0
10
-0.54356635308584345
20
-24.033460391868879
10
12.046723734393316
20
-24.033460391868879
42
0.41421356237309503
10
12.346723734393317
20
-23.733460391868878
10
12.346723734393317
20
-22.612637426493723
42
0.41421356237309503
10
12.046723734393316
20
-22.312637426493723
10
-0.54356635308584422
20
-22.312637426493726
42
0.41421356237309498
10
-0.84356635308584416
20
-22.612637426493723
10
-0.84356635308584127
20
-23.733460391868878
42
0.41421356237309503
0
LWPOLYLINE
5
107
100
AcDbEntity
8
0
100
AcDbPolyline
90
8
70
1
43
0.0
10
2.9771836030039243
20
-7.3239927897314452
10
13.597631184522585
20
-7.3239927897314452
42
-0.41421356237309503
10
13.797631184522588
20
-7.523992789731448
10
13.797631184522588
20
-19.757051731124047
42
-0.41421356237309503
10
13.597631184522589
20
-19.957051731124047
10
2.9771836030039243
20
-19.957051731124047
42
-0.4142135623730957
10
2.7771836030039236
20
-19.757051731124047
10
2.7771836030039236
20
-7.5239927897314463
42
-0.41421356237309631
0
LWPOLYLINE
5
108
100
AcDbEntity
8
0
100
AcDbPolyline
90
12
70
1
43
0.0
10
-2.208110838467825
20
-8.9640022906476897
10
0.10632063964713338
20
-8.9640022906476897
42
-0.41421356237309503
10
0.40632063964713333
20
-9.2640022906476904
10
0.406320639647134
20
-19.638868735934746
42
-0.41421356237309503
10
0.10632063964713334
20
-19.938868735934747
10
-0.5747392631441246
20
-19.938868735934747
42
0.41421356237309503
10
-0.87473926314412465
20
-20.238868735934748
10
-0.87473926314412398
20
-20.413361216039981
42
-0.41421356237309503
10
-1.1747392631441247
20
-20.713361216039981
10
-2.2081108384678267
20
-20.713361216039981
42
-0.41421356237309503
10
-2.5081108384678266
20
-20.413361216039981
10
-2.5081108384678257
20
-9.2640022906476904
42
-0.41421356237309503
0
LWPOLYLINE
5
109
100
AcDbEntity
8
0
100
AcDbPolyline
90
8
70
1
43
0.0
10
-17.879386942820126
20
-7.4926772400439408
10
-4.979386942820125
20
-7.4926772400439443
42
-0.41421356237309503
10
-4.7793869428201265
20
-7.6926772400439418
10
-4.779386942820123
20
-20.54267724004394
42
-0.41421356237309503
10
-4.9793869428201258
20
-20.742677240043943
10
-17.879386942820133
20
-20.742677240043946
42
-0.4142135623730846
10
-18.079386942820129
20
-20.542677240043943
10
-18.079386942820125
20
-7.6926772400439427
42
-0.41421356237309764
0
LWPOLYLINE
5
110
100
AcDbEntity
8
0
100
AcDbPolyline
90
8
70
1
43
0.0
10
14.007667032671815
20
8.9545657218724486
10
18.328086655864613
20
8.9545657218724486
42
-0.41421356237309503
10
18.628086655864614
20
8.6545657218724479
10
18.628086655864614
20
-2.1284786895403611
42
-0.41421356237309331
10
18.328086655864613
20
-2.4284786895403609
10
14.007667032671813
20
-2.4284786895403632
42
-0.41421356237309331
10
13.707667032671814
20
-2.128478689540362
10
13.707667032671814
20
8.6545657218724497
42
-0.41421356237309331
0
LWPOLYLINE
5
111
100
AcDbEntity
8
0
100
AcDbPolyline
90
24
70
1
43
0.0
10
-3.7620152776009963
20
-23.733460391868878
10
-3.7620152776009963
20
-22.61263742649372
42
0.41421356237309331
10
-4.0620152776009961
20
-22.312637426493719
10
-11.399516450355852
20
-22.312637426493733
42
-0.19440988353275623
10
-11.607938559394476
20
-22.228415609969012
10
-12.437743932326592
20
-21.426899056568669
42
0.19440988353275826
10
-12.646166041365216
20
-21.342677240043948
10
-15.020349436927738
20
-21.342677240043951
42
0.28535387348533503
10
-15.289307451526003
20
-21.509780338713039
10
-15.930564236483749
20
-22.807561927318005
42
-0.28535387348533719
10
-16.199522251082016
20
-22.974665025987097
10
-17.582106579674861
20
-22.974665025987093
42
0.41421356237309503
10
-17.882106579674865
20
-23.274665025987098
10
-17.882106579674865
20
-23.733460391868874
42
0.41421356237309853
10
-17.582106579674864
20
-24.033460391868879
10
-17.511937039731095
20
-24.033460391868889
42
-0.27882378391660834
10
-17.246272872129762
20
-24.194095582635399
10
-16.863456257745209
20
-24.923839753805954
42
0.27882378391660562
10
-16.597792090143869
20
-25.084474944572463
10
-11.225350257162415
20
-25.084474944572467
42
0.41421356237309503
10
-10.92535025716241
20
-24.784474944572462
10
-10.92535025716241
20
-24.333460391868883
42
-0.41421356237309503
10
-10.625350257162406
20
-24.033460391868879
10
-4.0620152776009961
20
-24.033460391868879
42
0.41421356237308815
0
LWPOLYLINE
5
112
100
AcDbEntity
8
0
100
AcDbPolyline
90
12
70
1
43
0.0
10
11.50569292912329
20
-5.1468168113690211
10
11.50569292912329
20
-3.0616317178036874
42
0.41421356237309681
10
11.205692929123288
20
-2.7616317178036875
10
-3.1298735608172352
20
-2.7616317178036858
42
0.41421356237309631
10
-3.429873560817235
20
-3.061631717803686
10
-3.429873560817235
20
-4.2685749581303947
42
0.41421356237309503
10
-3.1298735608172352
20
-4.5685749581303945
10
2.0554106285514995
20
-4.5685749581303945
42
-0.26070701759169845
10
2.3110619962672447
20
-4.7115960481295005
10
2.6746933745727635
20
-5.3037957213699167
42
0.26070701759169773
10
2.9303447422885078
20
-5.4468168113690218
10
11.205692929123289
20
-5.446816811369021
42
0.41421356237309503
0
LWPOLYLINE
5
113
100
AcDbEntity
8
0
100
AcDbPolyline
90
18
70
1
43
0.0
10
-11.526858657002631
20
-2.4133350694254068
10
-5.1328294577370723
20
-2.4133350694254068
42
-0.4160099612806254
10
-4.9328332146696905
20
-2.614560940108646
10
-4.9435919023760908
20
-4.3698008288136334
42
-0.41241944243896667
10
-5.1435881454434744
20
-4.5685749581303945
10
-5.5090024425606856
20
-4.5685749581303936
42
0.15335789809845582
10
-5.6233609748983202
20
-4.6044953247763969
10
-6.4186340071890271
20
-5.1587765291002228
42
0.24527507499168724
10
-6.5042754748513918
20
-5.3228561624542206
10
-6.5042754748513918
20
-6.2953133949151532
42
-0.4142135623730937
10
-6.7042754748513929
20
-6.4953133949151525
10
-15.815029000020822
20
-6.4953133949151516
42
-0.41421356237309503
10
-16.015029000020821
20
-6.2953133949151523
10
-16.015029000020821
20
-3.2210169253539269
42
-0.41421356237309503
10
-15.815029000020822
20
-3.0210169253539267
10
-12.524391245460723
20
-3.0210169253539263
42
0.15335789809845587
10
-12.410032713123089
20
-2.9850965587079243
10
-11.641217189340265
20
-2.4492554360714092
42
-0.15335789809845576
0
LWPOLYLINE
5
114
100
AcDbEntity
8
0
100
AcDbPolyline
90
8
70
1
43
0.0
10
-12.579785457406327
20
24.964263319193961
10
-17.166038037810736
20
24.964263319193961
42
0.41421356237309503
10
-17.366038037810736
20
24.764263319193962
10
-17.366038037810736
20
24.472366063314869
42
0.41421356237309503
10
-17.166038037810733
20
24.272366063314866
10
-12.579785457406324
20
24.272366063314866
42
0.41421356237309503
10
-12.379785457406328
20
24.472366063314862
10
-12.379785457406328
20
24.764263319193962
42
0.41421356237309503
0
LWPOLYLINE
5
115
100
AcDbEntity
8
0
100
AcDbPolyline
90
8
70
1
43
0.0
10
-10.291969112977991
20
5.5167065606883412
10
10.429753686329438
20
5.5167065606883412
42
-0.41421356237309553
10
11.429753686329436
20
4.5167065606883412
10
11.429753686329438
20
-0.2616317178036846
42
-0.41421356237309537
10
10.429753686329438
20
-1.2616317178036849
10
-10.291969112977988
20
-1.2616317178036858
42
-0.41421356237309492
10
-11.291969112977988
20
-0.26163171780368621
10
-11.291969112977991
20
4.5167065606883412
42
-0.41421356237309531
0
LWPOLYLINE
5
116
100
AcDbEntity
8
0
100
AcDbPolyline
90
8
70
1
43
0.0
10
-13.291969112977988
20
5.5167065606883412
10
-13.091969112977987
20
5.5167065606883385
42
-0.41421356237309503
10
-12.891969112977989
20
5.316706560688341
10
-12.891969112977987
20
-1.0616317178036843
42
-0.41421356237309503
10
-13.091969112977987
20
-1.2616317178036842
10
-13.29196911297799
20
-1.2616317178036836
42
-0.41421356237309243
10
-13.491969112977987
20
-1.0616317178036843
10
-13.491969112977987
20
5.316706560688341
42
-0.41421356237309503
0
LWPOLYLINE
5
117
100
AcDbEntity
8
0
100
AcDbPolyline
90
8
70
1
43
0.0
10
-14.091969112977987
20
5.3167065606883419
10
-14.091969112977985
20
-1.0616317178036849
42
-0.41421356237309764
10
-14.291969112977988
20
-1.2616317178036851
10
-14.491969112977987
20
-1.2616317178036851
42
-0.41421356237309598
10
-14.691969112977986
20
-1.0616317178036851
10
-14.691969112977986
20
5.316706560688341
42
-0.41421356237309631
10
-14.491969112977987
20
5.5167065606883421
10
-14.29196911297799
20
5.5167065606883412
42
-0.41421356237310025
0
LWPOLYLINE
5
118
100
AcDbEntity
8
0
100
AcDbPolyline
90
8
70
1
43
0.0
10
-12.978259963867215
20
21.271654990009381
10
-12.778259963867212
20
21.271654990009381
42
-0.41421356237309503
10
-12.378259963867212
20
20.871654990009382
10
-12.378259963867212
20
12.730401829510088
42
-0.41421356237309503
10
-12.778259963867212
20
12.330401829510087
10
-12.978259963867213
20
12.330401829510087
42
-0.41421356237309631
10
-13.378259963867215
20
12.730401829510088
10
-13.378259963867214
20
20.87165499000939
42
-0.41421356237308982
0
LWPOLYLINE
5
119
100
AcDbEntity
8
0
100
AcDbPolyline
90
8
70
1
43
0.0
10
-15.378259963867212
20
12.730401829510088
10
-15.37825996386721
20
20.871654990009382
42
-0.41421356237309503
10
-14.978259963867211
20
21.271654990009381
10
-14.778259963867212
20
21.271654990009381
42
-0.41421356237309503
10
-14.378259963867212
20
20.871654990009382
10
-14.378259963867212
20
12.73040182951009
42
-0.41421356237309631
10
-14.778259963867212
20
12.330401829510087
10
-14.97825996386721
20
12.330401829510087
42
-0.41421356237309631
0
LWPOLYLINE
5
120
100
AcDbEntity
8
0
100
AcDbPolyline
90
8
70
1
43
0.0
10
-17.378259963867212
20
12.730401829510088
10
-17.378259963867212
20
20.871654990009382
42
-0.41421356237309503
10
-16.978259963867213
20
21.271654990009381
10
-16.77825996386721
20
21.271654990009381
42
-0.41421356237309503
10
-16.378259963867212
20
20.871654990009382
10
-16.378259963867208
20
12.730401829510088
42
-0.41421356237310025
10
-16.77825996386721
20
12.330401829510087
10
-16.978259963867213
20
12.330401829510089
42
-0.41421356237309503
0
LINE
5
121
100
AcDbEntity
8
0
100
AcDbLine
10
-19.156572502261398
20
3.9141135885005758
30
0
11
-19.906463711934897
21
4.5068008115837657
31
0
0
LINE
5
122
100
AcDbEntity
8
0
100
AcDbLine
10
-19.156572502261401
20
-3.914113588500558
30
0
11
-19.906463711934897
21
-4.5068008115837417
31
0
0
LINE
5
123
100
AcDbEntity
8
0
100
AcDbLine
10
-18.928617278955979
20
3.4433878890382652
30
0
11
-18.928617278955979
21
-3.4433878890382452
31
0
0
ARC
5
124
100
AcDbEntity
8
0
100
AcDbCircle
10
-19.528617278955988
20
3.4433878890382652
30
0
40
0.60000000000000853
210
0
220
-0
230
1
100
AcDbArc
50
0
51
51.67841560253661
0
ARC
5
125
100
AcDbEntity
8
0
100
AcDbCircle
10
-19.528617278955988
20
-3.4433878890382452
30
0
40
0.60000000000000708
210
0
220
0
230
1
100
AcDbArc
50
-51.678415602537008
51
0
0
ENDSEC
0
SECTION
2
OBJECTS
0
DICTIONARY
5
C
100
AcDbDictionary
3
ACAD_GROUP
350
D
3
ACAD_MLINESTYLE
350
17
0
DICTIONARY
5
D
100
AcDbDictionary
0
DICTIONARY
5
1A
330
C
100
AcDbDictionary
0
DICTIONARY
5
17
100
AcDbDictionary
0
ENDSEC
0
EOF
