0
SECTION
2
HEADER
9
$INSUNITS
70
5
9
$ACADVER
1
AC1014
9
$HANDSEED
5
FFFF
0
ENDSEC
0
SECTION
2
TABLES
0
TABLE
2
VPORT
5
8
100
AcDbSymbolTable
0
ENDTAB
0
TABLE
2
LTYPE
5
5
100
AcDbSymbolTable
0
LTYPE
5
14
100
AcDbSymbolTableRecord
100
AcDbLinetypeTableRecord
2
BYBLOCK
70
0
0
LTYPE
5
15
100
AcDbSymbolTableRecord
100
AcDbLinetypeTableRecord
2
BYLAYER
70
0
0
ENDTAB
0
TABLE
2
LAYER
5
2
100
AcDbSymbolTable
70
2
0
LAYER
5
50
100
AcDbSymbolTableRecord
100
AcDbLayerTableRecord
2
0
70
0
6
CONTINUOUS
0
ENDTAB
0
TABLE
2
STYLE
5
3
100
AcDbSymbolTable
70
1
0
STYLE
5
11
100
AcDbSymbolTableRecord
100
AcDbTextStyleTableRecord
2
STANDARD
70
0
0
ENDTAB
0
TABLE
2
VIEW
5
6
100
AcDbSymbolTable
70
0
0
ENDTAB
0
TABLE
2
UCS
5
7
100
AcDbSymbolTable
70
0
0
ENDTAB
0
TABLE
2
APPID
5
9
100
AcDbSymbolTable
70
2
0
APPID
5
12
100
AcDbSymbolTableRecord
100
AcDbRegAppTableRecord
2
ACAD
70
0
0
ENDTAB
0
TABLE
2
DIMSTYLE
5
A
100
AcDbSymbolTable
70
1
0
ENDTAB
0
TABLE
2
BLOCK_RECORD
5
1
100
AcDbSymbolTable
70
1
0
BLOCK_RECORD
5
1F
100
AcDbSymbolTableRecord
100
AcDbBlockTableRecord
2
*MODEL_SPACE
0
BLOCK_RECORD
5
1B
100
AcDbSymbolTableRecord
100
AcDbBlockTableRecord
2
*PAPER_SPACE
0
ENDTAB
0
ENDSEC
0
SECTION
2
BLOCKS
0
BLOCK
5
20
100
AcDbEntity
100
AcDbBlockBegin
2
*MODEL_SPACE
0
ENDBLK
5
21
100
AcDbEntity
100
AcDbBlockEnd
0
BLOCK
5
1C
100
AcDbEntity
100
AcDbBlockBegin
2
*PAPER_SPACE
0
ENDBLK
5
1D
100
AcDbEntity
100
AcDbBlockEnd
0
ENDSEC
0
SECTION
2
ENTITIES
0
LWPOLYLINE
5
100
100
AcDbEntity
8
0
100
AcDbPolyline
90
4
70
1
43
0.0
10
-21.56725090737369
20
11.142645505793167
10
-22.337947478250403
20
10.204758185830478
10
-22.185373224554823
20
10.075411721130711
10
-21.308387897366632
20
11.142645505793171
0
LWPOLYLINE
5
101
100
AcDbEntity
8
0
100
AcDbPolyline
90
5
70
1
43
0.0
10
-19.609582313423545
20
10.940278363646231
10
-21.086081541395604
20
9.1434753724581235
10
-20.933507287700021
20
9.0141289077583533
10
-19.45602133990263
20
10.812132672438276
10
-19.566069341549646
20
10.905427049540171
42
0.013940052132572359
0
LWPOLYLINE
5
102
100
AcDbEntity
8
0
100
AcDbPolyline
90
4
70
1
43
0.0
10
-19.865487511830981
20
8.1087036548599816
10
-19.712913258135391
20
7.9793571901602061
10
-18.235427310338
20
9.777360954840125
10
-18.388001564033587
20
9.9067074195399041
0
LWPOLYLINE
5
103
100
AcDbEntity
8
0
100
AcDbPolyline
90
4
70
1
43
0.0
10
-18.644893482266355
20
7.0739319372618432
10
-18.492319228570764
20
6.9445854725620624
10
-17.014833280773374
20
8.7425892372419831
10
-17.167407534468964
20
8.8719357019417622
0
LWPOLYLINE
5
104
100
AcDbEntity
8
0
100
AcDbPolyline
90
5
70
1
43
0.0
10
-17.247184071300303
20
6.2000000923871994
10
-17.033268392514419
20
6.2000000923871994
10
-15.794239251208758
20
7.7078175196438456
10
-15.946813504904341
20
7.8371639843436203
10
-17.29133027572362
20
6.2009750113031386
42
0.011040587649019199
0
LWPOLYLINE
5
105
100
AcDbEntity
8
0
100
AcDbPolyline
90
2
70
1
43
0.0
10
-14.486023312221949
20
6.4646565825214859
10
-14.69792161244113
20
6.20679021019399
42
0.34208821280545387
0
LWPOLYLINE
5
106
100
AcDbEntity
8
0
100
AcDbPolyline
90
5
70
1
43
0.0
10
-11.609018396594607
20
6.2220416267812357
10
-17.41296061876012
20
11.142396074371636
10
-17.722232786233828
20
11.142386612479982
10
-11.892207021276864
20
6.1999195609265829
10
-11.627169802729657
20
6.199927669491502
0
LWPOLYLINE
5
107
100
AcDbEntity
8
0
100
AcDbPolyline
90
4
70
1
43
0.0
10
-9.4180296814871625
20
6.1999952560598173
10
-9.1087575140134494
20
6.2000047179514706
10
-14.938783278970408
20
11.142471769504857
10
-15.248055446444123
20
11.142462307613204
0
LWPOLYLINE
5
108
100
AcDbEntity
8
0
100
AcDbPolyline
90
4
70
1
43
0.0
10
-6.8698858448782794
20
6.3995633263925971
10
-12.464605939180696
20
11.14254746463808
10
-12.773878106654411
20
11.142538002746429
10
-7.0164864617771903
20
6.2616473077625976
42
0.11325503805282405
0
LWPOLYLINE
5
109
100
AcDbEntity
8
0
100
AcDbPolyline
90
4
70
1
43
0.0
10
-8.9011774860242703
20
11.24946040701631
10
-9.7930991778953995
20
10.164049913547668
10
-9.6405249240624542
20
10.034703448731445
10
-8.642314488503434
20
11.249460407016308
0
LWPOLYLINE
5
110
100
AcDbEntity
8
0
100
AcDbPolyline
90
4
70
1
43
0.0
10
-6.8302735058575585
20
11.249460407016308
10
-8.572505147231821
20
9.1292781950178732
10
-8.4199308933988792
20
8.9999317302016557
10
-6.5714105083367258
20
11.249460407016308
0
LWPOLYLINE
5
111
100
AcDbEntity
8
0
100
AcDbPolyline
90
4
70
1
43
0.0
10
-4.7593695256908539
20
11.249460407016304
10
-7.351911116568246
20
8.0945064764880836
10
-7.1993368627352972
20
7.9651600116718617
10
-4.500506528170015
20
11.249460407016308
0
LWPOLYLINE
5
112
100
AcDbEntity
8
0
100
AcDbPolyline
90
4
70
1
43
0.0
10
-2.6884655455241422
20
11.249460407016304
10
-6.1313170859046702
20
7.0597347579582923
10
-5.9787428320717257
20
6.9303882931420748
10
-2.4296025480033041
20
11.249460407016308
0
LWPOLYLINE
5
113
100
AcDbEntity
8
0
100
AcDbPolyline
90
4
70
1
43
0.0
10
-1.9630898916125217
20
9.6120402412249
10
-4.7377027945664958
20
6.2355174056138445
10
-4.4788397970456595
20
6.2355174056138463
10
-1.9630898916125219
20
9.297020866272355
0
LWPOLYLINE
5
114
100
AcDbEntity
8
0
100
AcDbPolyline
90
4
70
1
43
0.0
10
4.6195311668941859
20
8.8084017315837517
10
4.4653108946961186
20
8.9357450994664305
10
2.2464345639156922
20
6.2355174056138445
10
2.5052975614365178
20
6.2355174056138463
0
LWPOLYLINE
5
115
100
AcDbEntity
8
0
100
AcDbPolyline
90
4
70
1
43
0.0
10
5.8535754034804057
20
7.7894218856575321
10
5.6993551312823296
20
7.9167652535402055
10
4.3178119879273194
20
6.2355174056138445
10
4.5766749854481592
20
6.2355174056138445
0
LWPOLYLINE
5
116
100
AcDbEntity
8
0
100
AcDbPolyline
90
4
70
1
43
0.0
10
7.0873375810650092
20
6.7706749425961306
10
6.9331173088669367
20
6.898018310478804
10
6.3887159680940337
20
6.2355174056138445
10
6.6475789656148683
20
6.2355174056138445
0
LWPOLYLINE
5
117
100
AcDbEntity
8
0
100
AcDbPolyline
90
4
70
1
43
0.0
10
2.651603004866887
20
11.249460407016304
10
8.3538864035337532
20
6.5409485994695693
10
8.4808630787180448
20
6.6954709268519776
10
2.965715263048736
20
11.249460407016306
0
LWPOLYLINE
5
118
100
AcDbEntity
8
0
100
AcDbPolyline
90
4
70
1
43
0.0
10
5.1645010703220677
20
11.249460407016302
10
9.3696998050082971
20
7.7771272185290883
10
9.4966764801926029
20
7.9316495459115179
10
5.4786133285039682
20
11.249460407016306
0
LWPOLYLINE
5
119
100
AcDbEntity
8
0
100
AcDbPolyline
90
4
70
1
43
0.0
10
10.159014442725116
20
6.2401739080785967
10
11.034775973091277
20
7.3059185395847965
10
10.880255521181216
20
7.4328966083472672
10
9.9001538567513503
20
6.2401768427739857
0
LWPOLYLINE
5
120
100
AcDbEntity
8
0
100
AcDbPolyline
90
4
70
1
43
0.0
10
7.9482991328812105
20
10.480303893085292
10
8.5804844779377163
20
11.249632202504372
10
8.3216296496457343
20
11.249642143922776
10
7.8374336308439077
20
10.660407186983107
42
0.11916330034835068
0
LWPOLYLINE
5
121
100
AcDbEntity
8
0
100
AcDbPolyline
90
4
70
1
43
0.0
10
10.392468275981631
20
11.249562612575572
10
9.0232910056060511
20
9.5833632250859324
10
9.1770180842509941
20
9.4554196728341999
10
10.651323104273622
20
11.249552671157169
0
LWPOLYLINE
5
122
100
AcDbEntity
8
0
100
AcDbPolyline
90
4
70
1
43
0.0
10
12.464628318525953
20
11.24948303047888
10
10.260394133949688
20
8.5537504194748646
10
10.414124003698026
20
8.425804544251239
10
12.722968267614092
20
11.249473108834607
0
LWPOLYLINE
5
123
100
AcDbEntity
8
0
100
AcDbPolyline
90
5
70
1
43
0.0
10
14.419833216236672
20
11.110292925528576
42
-0.040093073571584932
10
14.550705774422473
20
11.018047816677306
10
14.581698616164068
20
10.992253179182416
10
11.63665134257006
20
7.4083228368065308
10
11.482924263925133
20
7.5362663890582482
0
LWPOLYLINE
5
124
100
AcDbEntity
8
0
100
AcDbPolyline
90
5
70
1
43
0.0
10
12.872326824653864
20
6.3919042604611551
10
15.811515245323623
20
9.96870476116856
10
15.657788166678674
20
10.096648313420292
10
12.712740893084648
20
6.5127179710444283
10
12.762245024970278
20
6.4715168076552843
42
0.034002630605360483
0
LWPOLYLINE
5
125
100
AcDbEntity
8
0
100
AcDbPolyline
90
4
70
1
43
0.0
10
14.567139057088728
20
6.2401239332902838
10
14.825999643062719
20
6.2401209985948931
10
17.045782652795083
20
8.9414520615633997
10
16.892055574150035
20
9.0693956138152174
0
LWPOLYLINE
5
126
100
AcDbEntity
8
0
100
AcDbPolyline
90
4
70
1
43
0.0
10
16.638023744878868
20
6.2401004557271609
10
16.896884330852604
20
6.2400975210317693
10
18.275599281954385
20
7.9179036435497547
10
18.121872203309486
20
8.0458471958014464
0
LWPOLYLINE
5
127
100
AcDbEntity
8
0
100
AcDbPolyline
90
4
70
1
43
0.0
10
19.351367198913756
20
7.0219073707399673
42
-0.11746834745001697
10
19.468332259738531
20
6.8492268418380213
10
18.967769018643107
20
6.2400740434686472
10
18.708908432669347
20
6.2400769781640371
0
LWPOLYLINE
5
128
100
AcDbEntity
8
0
100
AcDbPolyline
90
4
70
1
43
0.0
10
17.122693811575967
20
11.249304135700452
10
16.269925222262387
20
10.21154041296867
10
16.423660502548945
20
10.083606841579567
10
17.381548639868026
20
11.249294194282152
0
LWPOLYLINE
5
129
100
AcDbEntity
8
0
100
AcDbPolyline
90
4
70
1
43
0.0
10
17.504258480324545
20
9.1843678492351071
10
17.657993760611049
20
9.0564342778460496
10
19.459881752314846
20
11.249214375107121
10
19.201026924022905
20
11.249224316525423
0
LWPOLYLINE
5
130
100
AcDbEntity
8
0
100
AcDbPolyline
90
4
70
1
43
0.0
10
18.7341407226168
20
8.1608992781224465
10
18.887876002903322
20
8.0329657067333695
10
21.530720378651022
20
11.249134843760691
10
21.271865550359045
20
11.249144785178991
0
LWPOLYLINE
5
131
100
AcDbEntity
8
0
100
AcDbPolyline
90
4
70
1
43
0.0
10
20.24555159423111
20
7.1650133017843007
42
-0.14685565246621154
10
19.986792010996528
20
7.1651391502219282
10
23.294224855014416
20
11.190069083037706
42
-0.20753025195593583
10
23.396165740310305
20
10.999105112973481
0
LWPOLYLINE
5
132
100
AcDbEntity
8
0
100
AcDbPolyline
90
4
70
1
43
0.0
10
19.041611283189855
20
7.9050321353442872
10
19.195346563476576
20
7.7770985639550467
10
22.048430035235352
20
11.249114960924079
10
21.78957520694307
20
11.249124902342384
0
LWPOLYLINE
5
133
100
AcDbEntity
8
0
100
AcDbPolyline
90
4
70
1
43
0.0
10
17.811729040897589
20
8.9285007064569584
10
17.96546432118409
20
8.8005671350679009
10
19.977591408898835
20
11.249194492270513
10
19.718736580606908
20
11.249204433688821
0
LWPOLYLINE
5
134
100
AcDbEntity
8
0
100
AcDbPolyline
90
4
70
1
43
0.0
10
17.640403468160088
20
11.249284252863845
10
16.577395782835506
20
9.9556732701904593
10
16.731131063122056
20
9.827739698801361
10
17.899258296452132
20
11.249274311445541
0
LWPOLYLINE
5
135
100
AcDbEntity
8
0
100
AcDbPolyline
90
3
70
1
43
0.0
10
15.522197587817413
20
10.876701552251744
42
-0.53014930068343891
10
15.774898957119795
20
11.249355898275349
10
15.828419670115627
20
11.249353842791974
0
LWPOLYLINE
5
136
100
AcDbEntity
8
0
100
AcDbPolyline
90
4
70
1
43
0.0
10
18.583053439244217
20
7.6620165390463377
10
18.429326360599312
20
7.7899600912980347
10
17.155744916826343
20
6.2400945863363795
10
17.414605502800072
20
6.2400916516409879
0
LWPOLYLINE
5
137
100
AcDbEntity
8
0
100
AcDbPolyline
90
4
70
1
43
0.0
10
15.084860229036448
20
6.2401180638995042
10
15.343720815010162
20
6.2401151292041135
10
17.353236810084894
20
8.6855649570600022
10
17.19950973144001
20
8.8135085093116849
0
LWPOLYLINE
5
138
100
AcDbEntity
8
0
100
AcDbPolyline
90
4
70
1
43
0.0
10
13.272278179536629
20
6.248580209192891
10
16.118969402613509
20
9.7128176566651021
10
15.965242323968567
20
9.840761208916831
10
13.056934417858882
20
6.3015402792106237
42
0.055611573458376549
0
LWPOLYLINE
5
139
100
AcDbEntity
8
0
100
AcDbPolyline
90
4
70
1
43
0.0
10
11.944105499859932
20
7.1524357323030809
10
14.889152773453958
20
10.736366074678948
10
14.735425694809022
20
10.864309626930673
10
11.790378421214989
20
7.2803792845548134
0
LWPOLYLINE
5
140
100
AcDbEntity
8
0
100
AcDbPolyline
90
4
70
1
43
0.0
10
12.981016558901514
20
11.249463198391567
10
10.560561792055481
20
8.3039277025686253
10
10.714288870700425
20
8.1759841503168946
10
13.239871387193496
20
11.249453256973167
0
LWPOLYLINE
5
141
100
AcDbEntity
8
0
100
AcDbPolyline
90
4
70
1
43
0.0
10
10.910177932565606
20
11.249542729738771
10
9.330745162895937
20
9.327476120582471
10
9.4844722415408818
20
9.1995325683307367
10
11.169032760857599
20
11.249532788320371
0
LWPOLYLINE
5
142
100
AcDbEntity
8
0
100
AcDbPolyline
90
4
70
1
43
0.0
10
8.8393393062297072
20
11.249622261085975
10
8.100928533736397
20
10.351024538596313
10
8.2546556123813311
20
10.223080986344588
10
9.0981941345216857
20
11.249612319667573
0
LWPOLYLINE
5
143
100
AcDbEntity
8
0
100
AcDbPolyline
90
4
70
1
43
0.0
10
10.676735614672669
20
6.240168038687818
10
11.343816876911404
20
7.0519624020598553
10
11.189296425001348
20
7.178940470822317
10
10.417875028698901
20
6.2401709733832043
0
LWPOLYLINE
5
144
100
AcDbEntity
8
0
100
AcDbPolyline
90
5
70
1
43
0.0
10
5.8719140245539094
20
11.249460407016306
10
5.7927255866859131
20
11.249460407016306
10
9.6008014258736765
20
8.1050410929848411
42
0.14243449541357192
10
9.61083664976689
20
8.3561247740742033
10
6.1571475912375178
20
11.207918445971032
42
0.072438834727199794
0
LWPOLYLINE
5
145
100
AcDbEntity
8
0
100
AcDbPolyline
90
4
70
1
43
0.0
10
3.2798275212307129
20
11.249460407016304
10
8.6078397539023914
20
6.8499932542344517
10
8.7348164290866883
20
7.0045155816168672
10
3.5939397794125441
20
11.249460407016306
0
LWPOLYLINE
5
146
100
AcDbEntity
8
0
100
AcDbPolyline
90
4
70
1
43
0.0
10
7.3957781254611632
20
6.5159882068307757
10
7.2415578532630889
20
6.6433315747134518
10
6.9064419631357099
20
6.2355174056138445
10
7.1653049606565489
20
6.2355174056138454
0
LWPOLYLINE
5
147
100
AcDbEntity
8
0
100
AcDbPolyline
90
4
70
1
43
0.0
10
6.1620159478765615
20
7.5347351498921782
10
6.0077956756784836
20
7.6620785177748569
10
4.8355379829690008
20
6.2355174056138445
10
5.0944009804898416
20
6.2355174056138436
0
LWPOLYLINE
5
148
100
AcDbEntity
8
0
100
AcDbPolyline
90
4
70
1
43
0.0
10
4.9279717112903345
20
8.5537149958184031
10
4.7737514390922637
20
8.6810583637010765
10
2.7641605589573697
20
6.2355174056138445
10
3.0230235564782006
20
6.2355174056138445
0
LWPOLYLINE
5
149
100
AcDbEntity
8
0
100
AcDbPolyline
90
16
70
1
43
0.0
10
-1.2595151387305561
20
10.25861061296075
10
-1.2595151387305643
20
8.758610612961629
10
0.74048486126943558
20
8.758610612961709
10
0.74048486126943458
20
8.258610612961709
10
-1.2595151387305654
20
8.2586106129610943
10
-1.2595151387305654
20
7.2586106129610943
10
-0.76216078932920728
20
7.258610612961097
10
-0.7621607893292075
20
7.7586106129610979
10
0.73783921067079117
20
7.7586106129606316
10
0.73783921067079039
20
7.2586106129606343
10
1.2404848612676902
20
7.2586106129606263
10
1.240484861269447
20
9.2586106129606289
10
-0.75951513873055299
20
9.2586106129597781
10
-0.75951513873055654
20
9.7586106129597781
10
1.2404848612694435
20
9.7586106129586394
10
1.2404848612694439
20
10.258610612958641
0
LWPOLYLINE
5
150
100
AcDbEntity
8
0
100
AcDbPolyline
90
4
70
1
43
0.0
10
-2.1707395504824794
20
11.249460407016306
10
-5.8261685782387787
20
6.8010418283258485
10
-5.6735943244058298
20
6.6716953635096221
10
-1.9118765529616262
20
11.249460407016308
0
LWPOLYLINE
5
151
100
AcDbEntity
8
0
100
AcDbPolyline
90
4
70
1
43
0.0
10
-4.241643530649176
20
11.249460407016304
10
-7.0467626089023518
20
7.8358135468556362
10
-6.8941883550694047
20
7.7064670820394134
10
-3.9827805331283397
20
11.249460407016308
0
LWPOLYLINE
5
152
100
AcDbEntity
8
0
100
AcDbPolyline
90
4
70
1
43
0.0
10
-6.3125475108158868
20
11.249460407016306
10
-8.2673566395659286
20
8.8705852653854258
10
-8.1147823857329833
20
8.7412388005692065
10
-6.0536845132950514
20
11.249460407016308
0
LWPOLYLINE
5
153
100
AcDbEntity
8
0
100
AcDbPolyline
90
4
70
1
43
0.0
10
-8.3834514909825888
20
11.24946040701631
10
-9.4879506702295053
20
9.9053569839152207
10
-9.3353764163965529
20
9.776010519098989
10
-8.1245884934617489
20
11.249460407016308
0
LWPOLYLINE
5
154
100
AcDbEntity
8
0
100
AcDbPolyline
90
4
70
1
43
0.0
10
-12.153152000880038
20
11.140707306843488
10
-6.7965567769613902
20
6.5995960888004213
42
0.25001897368701526
10
-6.9527227451053664
20
6.9933134719795742
10
-11.56725954295749
20
10.905336677546515
42
0.16199293368624548
0
LWPOLYLINE
5
155
100
AcDbEntity
8
0
100
AcDbPolyline
90
4
70
1
43
0.0
10
-8.7994853465397327
20
6.200014179843123
10
-8.4902131790660178
20
6.2000236417347772
10
-14.32023894402298
20
11.142490693288162
10
-14.629511111496694
20
11.142481231396509
0
LWPOLYLINE
5
156
100
AcDbEntity
8
0
100
AcDbPolyline
90
4
70
1
43
0.0
10
-16.79441628381268
20
11.142414998154941
10
-17.103688451286398
20
11.142405536263286
10
-11.273662686329438
20
6.1999384847098922
10
-10.964390518855716
20
6.1999479466015437
0
LWPOLYLINE
5
157
100
AcDbEntity
8
0
100
AcDbPolyline
90
5
70
1
43
0.0
10
-14.58218286066062
20
6.6802836773550514
10
-14.726219475339711
20
6.8023922667454695
10
-15.221227322465053
20
6.2000000923871994
10
-14.962364312458012
20
6.2000000923871958
10
-14.573791354270174
20
6.672867968197516
42
0.010276682003887259
0
LWPOLYLINE
5
158
100
AcDbEntity
8
0
100
AcDbPolyline
90
4
70
1
43
0.0
10
-16.774405382507375
20
6.2000000923871994
10
-16.51554237250032
20
6.2000000923871994
10
-15.489090743817606
20
7.4491245902443106
10
-15.641664997513182
20
7.5784710549440799
0
LWPOLYLINE
5
159
100
AcDbEntity
8
0
100
AcDbPolyline
90
4
70
1
43
0.0
10
-18.339744974875195
20
6.8152390078623046
10
-18.187170721179601
20
6.6858925431625238
10
-16.709684773382214
20
8.483896307842441
10
-16.862259027077805
20
8.6132427725422236
0
LWPOLYLINE
5
160
100
AcDbEntity
8
0
100
AcDbPolyline
90
4
70
1
43
0.0
10
-19.560339004439818
20
7.8500107254604456
10
-19.407764750744242
20
7.7206642607606746
10
-17.930278802946852
20
9.5186680254405989
10
-18.082853056642428
20
9.6480144901403619
0
LWPOLYLINE
5
161
100
AcDbEntity
8
0
100
AcDbPolyline
90
4
70
1
43
0.0
10
-20.780933034004459
20
8.8847824430585973
10
-20.628358780308865
20
8.7554359783588183
10
-19.150872832511475
20
10.553439743038737
10
-19.303447086207065
20
10.682786207738518
0
LWPOLYLINE
5
162
100
AcDbEntity
8
0
100
AcDbPolyline
90
4
70
1
43
0.0
10
-21.040106345574927
20
11.142645505793176
10
-22.02724766793785
20
9.941359079668036
10
-21.848952809873488
20
9.7902076959569566
10
-20.737604825761441
20
11.14264550579318
0
LWPOLYLINE
5
163
100
AcDbEntity
8
0
100
AcDbPolyline
90
4
70
1
43
0.0
10
-22.084976927387793
20
11.142645505793162
10
-22.643095985641555
20
10.463451115230011
10
-22.490521731945975
20
10.334104650530245
10
-21.826113917380741
20
11.142645505793165
0
LWPOLYLINE
5
164
100
AcDbEntity
8
0
100
AcDbPolyline
90
4
70
1
43
0.0
10
-19.982993959083885
20
11.115899518468133
42
-0.053367311620636008
10
-19.782205554607792
20
11.045226521860325
10
-21.238655795091184
20
9.2728218371578919
10
-21.391230048786767
20
9.4021683018576603
0
LWPOLYLINE
5
165
100
AcDbEntity
8
0
100
AcDbPolyline
90
4
70
1
43
0.0
10
-20.170636019222137
20
8.3673965842595202
10
-20.018061765526554
20
8.2380501195597464
10
-18.54057581772916
20
10.036053884239667
10
-18.693150071424743
20
10.165400348939439
0
LWPOLYLINE
5
166
100
AcDbEntity
8
0
100
AcDbPolyline
90
4
70
1
43
0.0
10
-18.950041989657503
20
7.3326248666613703
10
-18.797467735961924
20
7.2032784019616045
10
-17.319981788164537
20
9.0012821666415253
10
-17.472556041860109
20
9.1306286313412901
0
LWPOLYLINE
5
167
100
AcDbEntity
8
0
100
AcDbPolyline
90
4
70
1
43
0.0
10
-17.519856322687779
20
6.2378931111614735
10
-16.099387758599917
20
7.9665104490433833
10
-16.251962012295486
20
8.0958569137431446
10
-17.714576845395271
20
6.3159503230168301
42
0.052590866073672873
0
LWPOLYLINE
5
168
100
AcDbEntity
8
0
100
AcDbPolyline
90
4
70
1
43
0.0
10
-15.738953342479153
20
6.2000000923871994
10
-15.480090332472102
20
6.2000000923871994
10
-14.878793729035287
20
6.931738731445237
10
-15.031367982730861
20
7.0610851961450027
0
LWPOLYLINE
5
169
100
AcDbEntity
8
0
100
AcDbPolyline
90
4
70
1
43
0.0
10
-18.104685048978524
20
10.94221809501755
10
-12.510751356224283
20
6.1999006371432763
10
-12.201479188750572
20
6.1999100990349296
10
-17.958367057003031
20
11.080373711966361
42
0.11323117265481115
0
LWPOLYLINE
5
170
100
AcDbEntity
8
0
100
AcDbPolyline
90
4
70
1
43
0.0
10
-10.036574016434587
20
6.1999763322765071
10
-9.7273018489608631
20
6.1999857941681622
10
-15.557327613917835
20
11.14245284572155
10
-15.866599781391557
20
11.1424433838299
0
LWPOLYLINE
5
171
100
AcDbEntity
8
0
100
AcDbPolyline
90
4
70
1
43
0.0
10
-13.083150274128126
20
11.142528540854775
10
-13.392422441601834
20
11.142519078963122
10
-7.562396676644882
20
6.2000520274097388
10
-7.2531245091711716
20
6.2000614893013939
0
LWPOLYLINE
5
172
100
AcDbEntity
8
0
100
AcDbPolyline
90
4
70
1
43
0.0
10
-9.4189034810659447
20
11.249460407016306
10
-10.098247685561294
20
10.422742843180114
10
-9.9456734317283484
20
10.293396378363893
10
-9.1600404835451084
20
11.249460407016308
0
LWPOLYLINE
5
173
100
AcDbEntity
8
0
100
AcDbPolyline
90
4
70
1
43
0.0
10
-7.34799950089924
20
11.249460407016308
10
-8.877653654897717
20
9.3879711246503241
10
-8.7250794010647788
20
9.2586246598341049
10
-7.0891365033784037
20
11.249460407016308
0
LWPOLYLINE
5
174
100
AcDbEntity
8
0
100
AcDbPolyline
90
4
70
1
43
0.0
10
-5.2770955207325301
20
11.249460407016306
10
-7.6570596242341402
20
8.3531994061205328
10
-7.5044853704011913
20
8.2238529413043082
10
-5.018232523211692
20
11.249460407016308
0
LWPOLYLINE
5
175
100
AcDbEntity
8
0
100
AcDbPolyline
90
4
70
1
43
0.0
10
-3.2061915405658148
20
11.249460407016304
10
-6.4364655935705617
20
7.3184276875907379
10
-6.2838913397376155
20
7.1890812227745178
10
-2.947328543044982
20
11.249460407016308
0
LWPOLYLINE
5
176
100
AcDbEntity
8
0
100
AcDbPolyline
90
4
70
1
43
0.0
10
-4.9816865446685394
20
6.2536244787240385
10
-1.963089891612521
20
9.9270596161774627
10
-1.9630898916125203
20
10.242078991130022
10
-5.1882515940589542
20
6.3172676687092046
42
0.054195492917422768
0
LWPOLYLINE
5
177
100
AcDbEntity
8
0
100
AcDbPolyline
90
4
70
1
43
0.0
10
4.3110906224980425
20
9.0630884673491092
10
4.1568888567326336
20
9.1904165540276388
10
1.7287396324337143
20
6.2355174056138445
10
1.9875715663948452
20
6.2355174056138445
0
LWPOLYLINE
5
178
100
AcDbEntity
8
0
100
AcDbPolyline
90
4
70
1
43
0.0
10
5.5451348590842482
20
8.0441086214228879
10
5.3906325278845681
20
8.1716848921703651
10
3.7996125490407247
20
6.2355174056138445
10
4.0589489904064733
20
6.2355174056138436
0
LWPOLYLINE
5
179
100
AcDbEntity
8
0
100
AcDbPolyline
90
4
70
1
43
0.0
10
6.7788970366688606
20
7.0253616783614827
10
6.6246767644707862
20
7.1527050462441562
10
5.8709899730523549
20
6.2355174056138445
10
6.129852970573193
20
6.2355174056138445
0
LWPOLYLINE
5
180
100
AcDbEntity
8
0
100
AcDbPolyline
90
4
70
1
43
0.0
10
8.2266521447316361
20
6.3866389650419944
10
2.337490746684928
20
11.249460407016306
10
1.9773784885030299
20
11.249460407016304
10
8.0246716684283665
20
6.2560657700482043
42
0.13609186498148745
0
LWPOLYLINE
5
181
100
AcDbEntity
8
0
100
AcDbPolyline
90
4
70
1
43
0.0
10
4.5362765539582739
20
11.249460407016304
10
9.1157464546396572
20
7.4680825637642059
10
9.2427231298239736
20
7.6226048911466471
10
4.8503888121401726
20
11.249460407016306
0
LWPOLYLINE
5
182
100
AcDbEntity
8
0
100
AcDbPolyline
90
4
70
1
43
0.0
10
9.6412932707775632
20
6.240179777469379
10
10.725735069271144
20
7.5598746771097467
10
10.571214617361063
20
7.6868527458722298
10
9.3824326848037582
20
6.2401827121647653
0
LWPOLYLINE
5
183
100
AcDbEntity
8
0
100
AcDbPolyline
90
5
70
1
43
0.0
10
11.725092048268278
20
6.2558719043166668
42
-0.089641752396032989
10
11.638137609259779
20
6.2401571392996722
10
11.453317372593995
20
6.2401592346016441
10
11.80709376733107
20
6.6706820200533103
42
-0.25145046307121083
10
11.883281335047919
20
6.4483779431200636
0
LWPOLYLINE
5
184
100
AcDbEntity
8
0
100
AcDbPolyline
90
4
70
1
43
0.0
10
9.8747586193976673
20
11.249582495412374
10
8.715836848316167
20
9.8392503295893903
10
8.8695639269611171
20
9.711306777337656
10
10.133613447689653
20
11.249572553993973
0
LWPOLYLINE
5
185
100
AcDbEntity
8
0
100
AcDbPolyline
90
4
70
1
43
0.0
10
11.945597245733561
20
11.249502964065176
10
9.9456534774757124
20
8.8157019115755482
10
10.099380556120654
20
8.6877583593238157
10
12.204452074025548
20
11.249493022646773
0
LWPOLYLINE
5
186
100
AcDbEntity
8
0
100
AcDbPolyline
90
4
70
1
43
0.0
10
14.012218947522427
20
11.244291710734709
10
11.175470106635258
20
7.7921534935617043
10
11.32919718528019
20
7.6642099413099816
10
14.231855588253215
20
11.196555794377375
42
0.056369613473042104
0
LWPOLYLINE
5
187
100
AcDbEntity
8
0
100
AcDbPolyline
90
4
70
1
43
0.0
10
12.559013814439705
20
6.6406615232961546
10
15.504061088033732
20
10.224591865672025
10
15.350334009388787
20
10.352535417923757
10
12.405286735794766
20
6.7686050755478862
0
LWPOLYLINE
5
188
100
AcDbEntity
8
0
100
AcDbPolyline
90
4
70
1
43
0.0
10
14.300783818305664
20
6.2401269529523491
10
16.733877717193259
20
9.201043447658197
10
16.580150638548329
20
9.3289869999099153
10
14.041923232331875
20
6.2401298876477371
0
LWPOLYLINE
5
189
100
AcDbEntity
8
0
100
AcDbPolyline
90
4
70
1
43
0.0
10
17.96814512466457
20
8.1737907480531575
10
17.814418046019661
20
8.3017343003048598
10
16.120302572931394
20
6.2401063251179423
10
16.37916315890514
20
6.2401033904225507
0
LWPOLYLINE
5
190
100
AcDbEntity
8
0
100
AcDbPolyline
90
4
70
1
43
0.0
10
18.191187260721588
20
6.2400828475548176
10
18.450047846695615
20
6.2400799128594269
10
19.197961753824224
20
7.1502423300392177
10
19.044234675179144
20
7.2781858822910648
0
LWPOLYLINE
5
191
100
AcDbEntity
8
0
100
AcDbPolyline
90
4
70
1
43
0.0
10
16.604984154991826
20
11.24932401853706
10
15.962454661689256
20
10.467407555746892
10
16.116189941975826
20
10.339473984357777
10
16.863838983283909
20
11.249314077118754
0
LWPOLYLINE
5
192
100
AcDbEntity
8
0
100
AcDbPolyline
90
4
70
1
43
0.0
10
17.196787919751337
20
9.4402349920133908
10
17.350523200037998
20
9.3123014206242019
10
18.942172095730832
20
11.24923425794373
10
18.683317267438621
20
11.249244199362034
0
LWPOLYLINE
5
193
100
AcDbEntity
8
0
100
AcDbPolyline
90
4
70
1
43
0.0
10
18.426670162043738
20
8.4167664209006077
10
18.580405442330253
20
8.2888328495115431
10
21.013010722066959
20
11.249154726597295
10
20.75415589377501
20
11.249164668015599
0
LWPOLYLINE
5
194
100
AcDbEntity
8
0
100
AcDbPolyline
90
4
70
1
43
0.0
10
19.656552404336338
20
7.3932978497876585
10
19.810287684622878
20
7.2653642783985681
10
23.083849348403721
20
11.249075195250864
10
22.824994520111741
20
11.249085136669169
0
LWPOLYLINE
5
195
100
AcDbEntity
8
0
100
AcDbPolyline
90
4
70
1
43
0.0
10
19.349081843763109
20
7.6491649925659608
10
19.502817124049805
20
7.5212314211767417
10
22.566139691819696
20
11.249095078087471
10
22.307284863527425
20
11.249105019505773
0
LWPOLYLINE
5
196
100
AcDbEntity
8
0
100
AcDbPolyline
90
4
70
1
43
0.0
10
18.119199601470672
20
8.6726335636787759
10
18.272934881757198
20
8.5446999922896971
10
20.495301065482959
20
11.249174609433904
10
20.236446237190972
20
11.249184550852206
0
LWPOLYLINE
5
197
100
AcDbEntity
8
0
100
AcDbPolyline
90
4
70
1
43
0.0
10
18.158113124744204
20
11.249264370027237
10
16.884866343408621
20
9.6998061274122502
10
17.038601623695168
20
9.5718725560231555
10
18.416967953036234
20
11.249254428608936
0
LWPOLYLINE
5
198
100
AcDbEntity
8
0
100
AcDbPolyline
90
4
70
1
43
0.0
10
16.087274498407687
20
11.249343901373669
10
15.654984101116131
20
10.723274698525112
10
15.808719381402694
20
10.595341127136001
10
16.34612932669976
20
11.249333959955365
0
LWPOLYLINE
5
199
100
AcDbEntity
8
0
100
AcDbPolyline
90
4
70
1
43
0.0
10
18.890507596534235
20
7.4061294345427697
10
18.73678051788913
20
7.5340729867946337
10
17.673466088773797
20
6.2400887169455972
10
17.932326674747877
20
6.2400857822502065
0
LWPOLYLINE
5
200
100
AcDbEntity
8
0
100
AcDbPolyline
90
4
70
1
43
0.0
10
17.660690967374698
20
8.4296778525566047
10
17.506963888729814
20
8.5576214048082893
10
15.602581400983881
20
6.2401121945087228
10
15.861441986957601
20
6.2401092598133321
0
LWPOLYLINE
5
201
100
AcDbEntity
8
0
100
AcDbPolyline
90
4
70
1
43
0.0
10
13.783062646358086
20
6.2401328223431278
10
16.42642355990338
20
9.4569305521616478
10
16.27269648125845
20
9.5848741044133696
10
13.524202060384312
20
6.2401357570385185
0
LWPOLYLINE
5
202
100
AcDbEntity
8
0
100
AcDbPolyline
90
4
70
1
43
0.0
10
12.251559657149819
20
6.8965486277996213
10
15.196606930743846
20
10.48047897017549
10
15.042879852098906
20
10.608422522427217
10
12.097832578504876
20
7.0244921800513511
0
LWPOLYLINE
5
203
100
AcDbEntity
8
0
100
AcDbPolyline
90
4
70
1
43
0.0
10
13.498726215485474
20
11.249443315554768
10
10.868015949345359
20
8.048040598065171
10
11.021743027990315
20
7.9200970458134297
10
13.757581043777474
20
11.249433374136368
0
LWPOLYLINE
5
204
100
AcDbEntity
8
0
100
AcDbPolyline
90
4
70
1
43
0.0
10
11.427887589149595
20
11.249522846901973
10
9.6381993201858212
20
9.0715890160790131
10
9.7919263988307694
20
8.9436454638272789
10
11.686742417441568
20
11.249512905483572
0
LWPOLYLINE
5
205
100
AcDbEntity
8
0
100
AcDbPolyline
90
4
70
1
43
0.0
10
9.3570489628136819
20
11.249602378249175
10
8.4083826910262793
20
10.095137434092855
10
8.5621097696712205
20
9.9671938818411263
10
9.6159037911056622
20
11.249592436830776
0
LWPOLYLINE
5
206
100
AcDbEntity
8
0
100
AcDbPolyline
90
4
70
1
43
0.0
10
11.194456786620208
20
6.240162169297033
10
11.65285778073153
20
6.7980062645349086
10
11.49833732882146
20
6.9249843332973873
10
10.935596200646421
20
6.2401651039924255
0
LWPOLYLINE
5
207
100
AcDbEntity
8
0
100
AcDbPolyline
90
5
70
1
43
0.0
10
10.225179782161391
20
7.8957896830795296
42
-0.17657088540144089
10
10.385680479734008
20
7.8393164889831191
10
10.416694165450998
20
7.813830814634704
10
9.1511103730889758
20
6.2736979295248112
42
-0.21873199980728408
10
9.0314973879077947
20
6.4431561072848247
0
LWPOLYLINE
5
208
100
AcDbEntity
8
0
100
AcDbPolyline
90
4
70
1
43
0.0
10
3.908052037594457
20
11.249460407016304
10
8.8617931042710207
20
7.1590379089993235
10
8.9887697794553532
20
7.3135602363817842
10
4.2221642957763788
20
11.249460407016306
0
LWPOLYLINE
5
209
100
AcDbEntity
8
0
100
AcDbPolyline
90
4
70
1
43
0.0
10
7.7042186698573119
20
6.2613014710654209
10
7.5499983976592375
20
6.3886448389480996
10
7.4241679581773861
20
6.2355174056138445
10
7.683030955698225
20
6.2355174056138454
0
LWPOLYLINE
5
210
100
AcDbEntity
8
0
100
AcDbPolyline
90
4
70
1
43
0.0
10
6.4704564922727084
20
7.2800484141268296
10
6.316236220074634
20
7.4073917820095065
10
5.353263978010677
20
6.2355174056138445
10
5.6121269755315151
20
6.2355174056138454
0
LWPOLYLINE
5
211
100
AcDbEntity
8
0
100
AcDbPolyline
90
4
70
1
43
0.0
10
5.2364122556864903
20
8.2990282600530474
10
5.0821919834884159
20
8.4263716279357226
10
3.2818865539990458
20
6.2355174056138445
10
3.5407495515198848
20
6.2355174056138427
0
LWPOLYLINE
5
212
100
AcDbEntity
8
0
100
AcDbPolyline
90
4
70
1
43
0.0
10
4.0026685845345513
20
9.3177599219103122
10
3.8484483123364761
20
9.4451032897929839
10
1.2110136373920333
20
6.2355174056138445
10
1.4698766349128691
20
6.2355174056138463
0
LWPOLYLINE
5
213
100
AcDbEntity
8
0
100
AcDbPolyline
90
5
70
1
43
0.0
10
-5.3657349147759481
20
6.4163014246577434
42
-0.023113832710709371
10
-5.438906058675113
20
6.4727358618668616
10
-5.5210200705728827
20
6.5423488986933975
10
-1.6530135554407988
20
11.249460407016306
10
-1.3941505579199482
20
11.249460407016308
0
LWPOLYLINE
5
214
100
AcDbEntity
8
0
100
AcDbPolyline
90
4
70
1
43
0.0
10
-3.7239175356075043
20
11.249460407016304
10
-6.7416141012364594
20
7.5771206172231871
10
-6.5890398474035123
20
7.4477741524069661
10
-3.4650545380866609
20
11.249460407016308
0
LWPOLYLINE
5
215
100
AcDbEntity
8
0
100
AcDbPolyline
90
4
70
1
43
0.0
10
-5.7948215157742151
20
11.249460407016308
10
-7.9622081319000362
20
8.6118923357529837
10
-7.80963387806709
20
8.4825458709367609
10
-5.5359585182533753
20
11.249460407016308
0
LWPOLYLINE
5
216
100
AcDbEntity
8
0
100
AcDbPolyline
90
4
70
1
43
0.0
10
-7.8657254959409153
20
11.249460407016308
10
-9.1828021625636111
20
9.6466640542827715
10
-9.0302279087306623
20
9.5173175894665469
10
-7.6068624984200772
20
11.249460407016308
0
LWPOLYLINE
5
217
100
AcDbEntity
8
0
100
AcDbPolyline
90
5
70
1
43
0.0
10
-9.9456803468785751
20
11.238446087934985
42
-0.055483321809937806
10
-9.8467279747576111
20
11.249460407016308
10
-9.6777664785867881
20
11.249460407016308
10
-10.234780308688352
20
10.571610925711445
42
-0.1402963285082876
10
-10.296568542070387
20
10.811438052850118
0
LWPOLYLINE
5
218
100
AcDbEntity
8
0
100
AcDbPolyline
90
4
70
1
43
0.0
10
-13.70169460907556
20
11.14250961707147
10
-14.010966776549267
20
11.142500155179818
10
-8.18094101159231
20
6.2000331036264322
10
-7.871668844118596
20
6.2000425655180855
0
LWPOLYLINE
5
219
100
AcDbEntity
8
0
100
AcDbPolyline
90
5
70
1
43
0.0
10
-10.395285526716959
20
6.2418796050336542
10
-16.175871948865257
20
11.142433921938247
10
-16.485144116338972
20
11.142424460046591
10
-10.655118351382008
20
6.1999574084932005
10
-10.429699159310063
20
6.1999643049817843
0
LWPOLYLINE
5
220
100
AcDbEntity
8
0
100
AcDbPolyline
90
5
70
1
43
0.0
10
-18.021402253055626
20
10.349134667502778
10
-13.406865455203485
20
6.4371114619358192
42
0.1552241659300318
10
-12.847310517703296
20
6.2036935477936188
10
-12.837957000236676
20
6.215094472884541
10
-18.177674890573968
20
10.741897749846915
42
0.24945223339133357
0
LWPOLYLINE
5
221
100
AcDbEntity
8
0
100
AcDbPolyline
90
4
70
1
43
0.0
10
-16.256679362493262
20
6.2000000923871994
10
-15.997816352486192
20
6.2000000923871994
10
-15.183942236426436
20
7.1904316608447676
10
-15.336516490122024
20
7.3197781255445413
0
LWPOLYLINE
5
222
100
AcDbEntity
8
0
100
AcDbPolyline
90
5
70
1
43
0.0
10
-17.881946017670113
20
6.4272923394554704
10
-16.404536265991062
20
8.2252033784429113
10
-16.557110519686631
20
8.3545498431426743
10
-18.034596467484029
20
6.5565460784627572
10
-17.89384032969339
20
6.4372185486402103
42
0.0038730760370027208
0
LWPOLYLINE
5
223
100
AcDbEntity
8
0
100
AcDbPolyline
90
4
70
1
43
0.0
10
-19.255190497048655
20
7.5913177960609044
10
-19.102616243353072
20
7.4619713313611324
10
-17.625130295555682
20
9.2599750960410514
10
-17.777704549251261
20
9.3893215607408216
0
LWPOLYLINE
5
224
100
AcDbEntity
8
0
100
AcDbPolyline
90
4
70
1
43
0.0
10
-20.475784526613282
20
8.6260895136590463
10
-20.323210272917702
20
8.4967430489592761
10
-18.845724325120308
20
10.294746813639195
10
-18.998298578815888
20
10.424093278338963
0
LWPOLYLINE
5
225
100
AcDbEntity
8
0
100
AcDbPolyline
90
4
70
1
43
0.0
10
-20.478741815754333
20
11.142645505793185
10
-21.696378556177883
20
9.6608612312571669
10
-21.543804302482339
20
9.5315147665574287
10
-20.219878805747339
20
11.142645505793189
0
LWPOLYLINE
5
226
100
AcDbEntity
8
0
100
AcDbPolyline
90
5
70
1
43
0.0
10
-22.34383993739484
20
11.142645505793158
10
-22.602702947401902
20
11.142645505793155
10
-22.938192043721926
20
10.734377217968337
42
0.085926947923997299
10
-22.878678736066917
20
10.66316892589397
10
-22.795670239337127
20
10.592797579929774
0
LWPOLYLINE
5
227
100
AcDbEntity
8
0
100
AcDbPolyline
90
4
70
1
43
0.0
10
-30
20
11.4494604070163
10
30
20
11.4494604070163
10
30
20
6.0355174056138416
10
-30
20
6.0355174056138434
0
ENDSEC
0
SECTION
2
OBJECTS
0
DICTIONARY
5
C
100
AcDbDictionary
3
ACAD_GROUP
350
D
3
ACAD_MLINESTYLE
350
17
0
DICTIONARY
5
D
100
AcDbDictionary
0
DICTIONARY
5
1A
330
C
100
AcDbDictionary
0
DICTIONARY
5
17
100
AcDbDictionary
0
ENDSEC
0
EOF
