0
SECTION
2
HEADER
9
$INSUNITS
70
5
9
$ACADVER
1
AC1014
9
$HANDSEED
5
FFFF
0
ENDSEC
0
SECTION
2
TABLES
0
TABLE
2
VPORT
5
8
100
AcDbSymbolTable
0
ENDTAB
0
TABLE
2
LTYPE
5
5
100
AcDbSymbolTable
0
LTYPE
5
14
100
AcDbSymbolTableRecord
100
AcDbLinetypeTableRecord
2
BYBLOCK
70
0
0
LTYPE
5
15
100
AcDbSymbolTableRecord
100
AcDbLinetypeTableRecord
2
BYLAYER
70
0
0
ENDTAB
0
TABLE
2
LAYER
5
2
100
AcDbSymbolTable
70
2
0
LAYER
5
50
100
AcDbSymbolTableRecord
100
AcDbLayerTableRecord
2
0
70
0
6
CONTINUOUS
0
ENDTAB
0
TABLE
2
STYLE
5
3
100
AcDbSymbolTable
70
1
0
STYLE
5
11
100
AcDbSymbolTableRecord
100
AcDbTextStyleTableRecord
2
STANDARD
70
0
0
ENDTAB
0
TABLE
2
VIEW
5
6
100
AcDbSymbolTable
70
0
0
ENDTAB
0
TABLE
2
UCS
5
7
100
AcDbSymbolTable
70
0
0
ENDTAB
0
TABLE
2
APPID
5
9
100
AcDbSymbolTable
70
2
0
APPID
5
12
100
AcDbSymbolTableRecord
100
AcDbRegAppTableRecord
2
ACAD
70
0
0
ENDTAB
0
TABLE
2
DIMSTYLE
5
A
100
AcDbSymbolTable
70
1
0
ENDTAB
0
TABLE
2
BLOCK_RECORD
5
1
100
AcDbSymbolTable
70
1
0
BLOCK_RECORD
5
1F
100
AcDbSymbolTableRecord
100
AcDbBlockTableRecord
2
*MODEL_SPACE
0
BLOCK_RECORD
5
1B
100
AcDbSymbolTableRecord
100
AcDbBlockTableRecord
2
*PAPER_SPACE
0
ENDTAB
0
ENDSEC
0
SECTION
2
BLOCKS
0
BLOCK
5
20
100
AcDbEntity
100
AcDbBlockBegin
2
*MODEL_SPACE
0
ENDBLK
5
21
100
AcDbEntity
100
AcDbBlockEnd
0
BLOCK
5
1C
100
AcDbEntity
100
AcDbBlockBegin
2
*PAPER_SPACE
0
ENDBLK
5
1D
100
AcDbEntity
100
AcDbBlockEnd
0
ENDSEC
0
SECTION
2
ENTITIES
0
CIRCLE
5
100
100
AcDbEntity
8
0
100
AcDbCircle
10
-2.9937059309040457
20
21.999991256942483
30
0
40
1.25
210
0
220
0
230
1
0
CIRCLE
5
101
100
AcDbEntity
8
0
100
AcDbCircle
10
-3.2509274961676859
20
25.999991256942483
30
0
40
1.25
210
0
220
0
230
1
0
CIRCLE
5
102
100
AcDbEntity
8
0
100
AcDbCircle
10
-3.2509274961676859
20
29.999991256942486
30
0
40
1.25
210
0
220
0
230
1
0
CIRCLE
5
103
100
AcDbEntity
8
0
100
AcDbCircle
10
-3.2509274961676864
20
17.999991256942483
30
0
40
1.25
210
0
220
0
230
1
0
CIRCLE
5
104
100
AcDbEntity
8
0
100
AcDbCircle
10
-3.2509274961676868
20
13.999991256942481
30
0
40
1.25
210
0
220
0
230
1
0
LINE
5
105
100
AcDbEntity
8
0
100
AcDbLine
10
-4.9809274961676859
20
41.688521810465744
30
3.5527136788005009e-15
11
-4.9809274961676859
21
22.000000000000004
31
3.5527136788005009e-15
0
LINE
5
106
100
AcDbEntity
8
0
100
AcDbLine
10
-4.9809274961676859
20
22
30
3.5527136788005009e-15
11
-4.9809274961676895
21
2.3114781895342631
31
3.5527136788005009e-15
0
LWPOLYLINE
5
107
100
AcDbEntity
8
0
100
AcDbPolyline
90
8
70
1
43
0.0
10
-3.5279176087920452
20
10.999991256942479
10
-2.937917608791889
20
10.999991256942479
42
-0.41421356237309503
10
-2.8879176087918035
20
10.949991256942393
10
-2.8879176087918035
20
9.2499912569424794
42
-0.41421356237309503
10
-2.9379176087918042
20
9.1999912569424787
10
-3.5279176087920523
20
9.1999912569423756
42
-0.41421356237309503
10
-3.57791760879191
20
9.2499912569422342
10
-3.5779176087920512
20
10.949991256942473
42
-0.41421356237309503
0
LWPOLYLINE
5
108
100
AcDbEntity
8
0
100
AcDbPolyline
90
8
70
1
43
0.0
10
-3.2481209929794042
20
7.1767556959473442
10
-3.1681209929794041
20
7.1767556959473442
42
-0.41421356237309503
10
-2.818120992979404
20
6.8267556959473437
10
-2.818120992979404
20
6.1967556959473438
42
-0.41421356237309503
10
-3.1681209929794036
20
5.8467556959473441
10
-3.2481209929794037
20
5.8467556959473441
42
-0.41421356237309503
10
-3.5981209929794038
20
6.1967556959473447
10
-3.5981209929794038
20
6.8267556959473445
42
-0.41421356237309503
0
CIRCLE
5
109
100
AcDbEntity
8
0
100
AcDbCircle
10
-3.2310680704951942
20
2.8469562893757963
30
0
40
1
210
0
220
0
230
1
0
CIRCLE
5
110
100
AcDbEntity
8
0
100
AcDbCircle
10
-3.2315176637628613
20
41.053991242650838
30
-7.1054273576010019e-15
40
1.165
210
0
220
0
230
1
0
LINE
5
111
100
AcDbEntity
8
0
100
AcDbLine
10
-2.7000000402331352
20
3.8467556959473441
30
0
11
-3.8630553351766319
21
3.8467556959473441
31
0
0
LINE
5
112
100
AcDbEntity
8
0
100
AcDbLine
10
-0.70000001043081284
20
22.000000327825546
30
0
11
-1.3000000193715096
21
22.000000327825546
31
0
0
LWPOLYLINE
5
113
100
AcDbEntity
8
0
100
AcDbPolyline
90
8
70
1
43
0.0
10
-2.9379176087918042
20
34.80000939870861
10
-3.5279176087920523
20
34.80000939870861
42
0.41421356237309503
10
-3.57791760879191
20
34.750009398708855
10
-3.57791760879191
20
33.050009398708617
42
0.41421356237309503
10
-3.5279176087920452
20
33.000009398708613
10
-2.937917608791889
20
33.000009398708613
42
0.41421356237309503
10
-2.8879176087918035
20
33.050009398708696
10
-2.8879176087918035
20
34.750009398708613
42
0.41421356237309503
0
LWPOLYLINE
5
114
100
AcDbEntity
8
0
100
AcDbPolyline
90
8
70
1
43
0.0
10
-3.1681209929794036
20
38.153244959703748
10
-3.2481209929794037
20
38.153244959703748
42
0.41421356237309503
10
-3.5981209929794038
20
37.803244959703747
10
-3.5981209929794038
20
37.173244959703744
42
0.41421356237308909
10
-3.2481209929794042
20
36.82324495970375
10
-3.1681209929794041
20
36.82324495970375
42
0.41421356237310103
10
-2.818120992979404
20
37.173244959703752
10
-2.818120992979404
20
37.803244959703747
42
0.41421356237309503
0
LINE
5
115
100
AcDbEntity
8
0
100
AcDbLine
10
-1.4809374668984674
20
2.2999999485909939
30
3.5527136788005009e-15
11
-1.4809374668984674
21
41.600250822569173
31
0
0
ENDSEC
0
SECTION
2
OBJECTS
0
DICTIONARY
5
C
100
AcDbDictionary
3
ACAD_GROUP
350
D
3
ACAD_MLINESTYLE
350
17
0
DICTIONARY
5
D
100
AcDbDictionary
0
DICTIONARY
5
1A
330
C
100
AcDbDictionary
0
DICTIONARY
5
17
100
AcDbDictionary
0
ENDSEC
0
EOF
