0
SECTION
2
HEADER
9
$INSUNITS
70
5
9
$ACADVER
1
AC1014
9
$HANDSEED
5
FFFF
0
ENDSEC
0
SECTION
2
TABLES
0
TABLE
2
VPORT
5
8
100
AcDbSymbolTable
0
ENDTAB
0
TABLE
2
LTYPE
5
5
100
AcDbSymbolTable
0
LTYPE
5
14
100
AcDbSymbolTableRecord
100
AcDbLinetypeTableRecord
2
BYBLOCK
70
0
0
LTYPE
5
15
100
AcDbSymbolTableRecord
100
AcDbLinetypeTableRecord
2
BYLAYER
70
0
0
ENDTAB
0
TABLE
2
LAYER
5
2
100
AcDbSymbolTable
70
2
0
LAYER
5
50
100
AcDbSymbolTableRecord
100
AcDbLayerTableRecord
2
0
70
0
6
CONTINUOUS
0
ENDTAB
0
TABLE
2
STYLE
5
3
100
AcDbSymbolTable
70
1
0
STYLE
5
11
100
AcDbSymbolTableRecord
100
AcDbTextStyleTableRecord
2
STANDARD
70
0
0
ENDTAB
0
TABLE
2
VIEW
5
6
100
AcDbSymbolTable
70
0
0
ENDTAB
0
TABLE
2
UCS
5
7
100
AcDbSymbolTable
70
0
0
ENDTAB
0
TABLE
2
APPID
5
9
100
AcDbSymbolTable
70
2
0
APPID
5
12
100
AcDbSymbolTableRecord
100
AcDbRegAppTableRecord
2
ACAD
70
0
0
ENDTAB
0
TABLE
2
DIMSTYLE
5
A
100
AcDbSymbolTable
70
1
0
ENDTAB
0
TABLE
2
BLOCK_RECORD
5
1
100
AcDbSymbolTable
70
1
0
BLOCK_RECORD
5
1F
100
AcDbSymbolTableRecord
100
AcDbBlockTableRecord
2
*MODEL_SPACE
0
BLOCK_RECORD
5
1B
100
AcDbSymbolTableRecord
100
AcDbBlockTableRecord
2
*PAPER_SPACE
0
ENDTAB
0
ENDSEC
0
SECTION
2
BLOCKS
0
BLOCK
5
20
100
AcDbEntity
100
AcDbBlockBegin
2
*MODEL_SPACE
0
ENDBLK
5
21
100
AcDbEntity
100
AcDbBlockEnd
0
BLOCK
5
1C
100
AcDbEntity
100
AcDbBlockBegin
2
*PAPER_SPACE
0
ENDBLK
5
1D
100
AcDbEntity
100
AcDbBlockEnd
0
ENDSEC
0
SECTION
2
ENTITIES
0
LWPOLYLINE
5
100
100
AcDbEntity
8
0
100
AcDbPolyline
90
12
70
1
43
0.0
10
-23.451000000000004
20
-10.712699331704449
10
23.451000000000004
20
-10.712699331704449
10
23.451000000000004
20
-14.327043927004457
10
23.452000000000005
20
-14.327043927004455
10
23.452000000000005
20
-14.326043927004456
10
30.000000000000014
20
-14.326043927004456
10
30.000000000000007
20
-19.061892509656222
10
-30.000000000000014
20
-19.061892509656222
10
-30.000000000000014
20
-14.326043927004456
10
-23.452000000000005
20
-14.326043927004458
10
-23.452000000000005
20
-14.327043927004457
10
-23.451000000000004
20
-14.327043927004455
0
LWPOLYLINE
5
101
100
AcDbEntity
8
0
100
AcDbPolyline
90
17
70
1
43
0.0
10
-19.688521810465737
20
-13.999999999999996
10
-3.1213203435596428
20
-13.999999999999996
42
0.19641049911183839
10
-2.2810037598035326
20
-13.656660982573886
10
-1.4713059184281234
20
-12.862411521258426
42
-0.19641049911183839
10
-0.63098933467201379
20
-12.519072503832316
10
0.63895803100419357
20
-12.519072503832316
42
-0.22473066037059961
10
1.5670723036387055
20
-12.958412332052493
10
2.0606601717798245
20
-13.560660171779817
42
0.22473066037059963
10
2.9887744444143358
20
-13.999999999999995
10
19.688521810465737
20
-14
42
-0.41421356237309503
10
21
20
-15.311478189534263
10
21
20
-16.188521810465737
42
-0.41421356237309503
10
19.688521810465737
20
-17.5
10
0
20
-17.499999999999996
10
-19.68852181046574
20
-17.499999999999993
42
-0.41421356237309426
10
-21
20
-16.18852181046573
10
-21
20
-15.311478189534265
42
-0.41421356237309581
0
LWPOLYLINE
5
102
100
AcDbEntity
8
0
100
AcDbPolyline
90
8
70
1
43
0.0
10
20.999999999999993
20
-11.519072503832316
10
-21.000000000000007
20
-11.519072503832316
42
0.41421356237309553
10
-22.000000000000011
20
-12.519072503832318
10
-22.000000000000007
20
-17.500000275671482
42
0.41421356237309293
10
-21.000000000000011
20
-18.500000275671482
10
21.000000000000004
20
-18.500000275671489
42
0.41421356237309293
10
21.999999999999996
20
-17.500000275671482
10
22
20
-12.519072503832318
42
0.41421356237309553
0
ENDSEC
0
SECTION
2
OBJECTS
0
DICTIONARY
5
C
100
AcDbDictionary
3
ACAD_GROUP
350
D
3
ACAD_MLINESTYLE
350
17
0
DICTIONARY
5
D
100
AcDbDictionary
0
DICTIONARY
5
1A
330
C
100
AcDbDictionary
0
DICTIONARY
5
17
100
AcDbDictionary
0
ENDSEC
0
EOF
