0
SECTION
2
HEADER
9
$INSUNITS
70
5
9
$ACADVER
1
AC1014
9
$HANDSEED
5
FFFF
0
ENDSEC
0
SECTION
2
TABLES
0
TABLE
2
VPORT
5
8
100
AcDbSymbolTable
0
ENDTAB
0
TABLE
2
LTYPE
5
5
100
AcDbSymbolTable
0
LTYPE
5
14
100
AcDbSymbolTableRecord
100
AcDbLinetypeTableRecord
2
BYBLOCK
70
0
0
LTYPE
5
15
100
AcDbSymbolTableRecord
100
AcDbLinetypeTableRecord
2
BYLAYER
70
0
0
ENDTAB
0
TABLE
2
LAYER
5
2
100
AcDbSymbolTable
70
2
0
LAYER
5
50
100
AcDbSymbolTableRecord
100
AcDbLayerTableRecord
2
0
70
0
6
CONTINUOUS
0
ENDTAB
0
TABLE
2
STYLE
5
3
100
AcDbSymbolTable
70
1
0
STYLE
5
11
100
AcDbSymbolTableRecord
100
AcDbTextStyleTableRecord
2
STANDARD
70
0
0
ENDTAB
0
TABLE
2
VIEW
5
6
100
AcDbSymbolTable
70
0
0
ENDTAB
0
TABLE
2
UCS
5
7
100
AcDbSymbolTable
70
0
0
ENDTAB
0
TABLE
2
APPID
5
9
100
AcDbSymbolTable
70
2
0
APPID
5
12
100
AcDbSymbolTableRecord
100
AcDbRegAppTableRecord
2
ACAD
70
0
0
ENDTAB
0
TABLE
2
DIMSTYLE
5
A
100
AcDbSymbolTable
70
1
0
ENDTAB
0
TABLE
2
BLOCK_RECORD
5
1
100
AcDbSymbolTable
70
1
0
BLOCK_RECORD
5
1F
100
AcDbSymbolTableRecord
100
AcDbBlockTableRecord
2
*MODEL_SPACE
0
BLOCK_RECORD
5
1B
100
AcDbSymbolTableRecord
100
AcDbBlockTableRecord
2
*PAPER_SPACE
0
ENDTAB
0
ENDSEC
0
SECTION
2
BLOCKS
0
BLOCK
5
20
100
AcDbEntity
100
AcDbBlockBegin
2
*MODEL_SPACE
0
ENDBLK
5
21
100
AcDbEntity
100
AcDbBlockEnd
0
BLOCK
5
1C
100
AcDbEntity
100
AcDbBlockBegin
2
*PAPER_SPACE
0
ENDBLK
5
1D
100
AcDbEntity
100
AcDbBlockEnd
0
ENDSEC
0
SECTION
2
ENTITIES
0
LWPOLYLINE
5
100
100
AcDbEntity
8
0
100
AcDbPolyline
90
4
70
1
43
0.0
10
-17.983858282823366
20
-3.8981386434566918
10
-18.241299668578598
20
-3.8975418911168607
10
-13.400099298110671
20
-9.8990299537020263
10
-13.143139292576238
20
-9.8990299537020245
0
LWPOLYLINE
5
101
100
AcDbEntity
8
0
100
AcDbPolyline
90
4
70
1
43
0.0
10
-23.960053598704139
20
-5.7976826886632598
10
-20.615972244991905
20
-9.8990299537019588
10
-20.357916851536544
20
-9.8990299537019553
10
-23.855538250974359
20
-5.6093735597865013
0
LWPOLYLINE
5
102
100
AcDbEntity
8
0
100
AcDbPolyline
90
4
70
1
43
0.0
10
-11.858339264904064
20
-9.8990299537020139
10
-11.601379259369629
20
-9.8990299537020121
10
-16.439209968291962
20
-3.9017191574956929
10
-16.696651354047198
20
-3.9011224051558635
0
LWPOLYLINE
5
103
100
AcDbEntity
8
0
100
AcDbPolyline
90
4
70
1
43
0.0
10
-19.013623825844949
20
-3.8957516340965466
10
-19.271065211599314
20
-3.8951548817572288
10
-14.427939320248427
20
-9.8990299537020352
10
-14.170979314713993
20
-9.8990299537020334
0
LWPOLYLINE
5
104
100
AcDbEntity
8
0
100
AcDbPolyline
90
4
70
1
43
0.0
10
-17.468975511312895
20
-3.8993321481363594
10
-17.726416897068127
20
-3.8987353957965265
10
-12.886179287041807
20
-9.8990299537020228
10
-12.629219281507371
20
-9.899029953702021
0
LWPOLYLINE
5
105
100
AcDbEntity
8
0
100
AcDbPolyline
90
4
70
1
43
0.0
10
-8.2608991874220106
20
-9.8990299537019855
10
-8.0039391818875814
20
-9.8990299537019837
10
-12.83503056771872
20
-3.9100736902533644
10
-13.092471953473943
20
-3.9094769379135315
0
LWPOLYLINE
5
106
100
AcDbEntity
8
0
100
AcDbPolyline
90
4
70
1
43
0.0
10
-17.211534125557669
20
-3.8999289004761959
10
-12.37225927597293
20
-9.8990299537020192
10
-12.115299270438497
20
-9.8990299537020157
10
-16.954092739802416
20
-3.9005256528160288
0
LWPOLYLINE
5
107
100
AcDbEntity
8
0
100
AcDbPolyline
90
4
70
1
43
0.0
10
-11.3444192538352
20
-9.8990299537020103
10
-11.087459248300767
20
-9.8990299537020086
10
-15.924327196781498
20
-3.9029126621753605
10
-16.181768582536733
20
-3.9023159098355222
0
LWPOLYLINE
5
108
100
AcDbEntity
8
0
100
AcDbPolyline
90
4
70
1
43
0.0
10
-8.7748191984908761
20
-9.899029953701989
10
-8.5178591929564487
20
-9.8990299537019872
10
-13.349913339229177
20
-3.9088801855737021
10
-13.607354724984411
20
-3.9082834332338674
0
LWPOLYLINE
5
109
100
AcDbEntity
8
0
100
AcDbPolyline
90
4
70
1
43
0.0
10
-13.914019309179551
20
-9.8990299537020299
10
-13.657059303645115
20
-9.8990299537020281
10
-18.498741054333827
20
-3.8969451387770278
10
-18.756182440088395
20
-3.89634838643655
0
LWPOLYLINE
5
110
100
AcDbEntity
8
0
100
AcDbPolyline
90
4
70
1
43
0.0
10
-9.2887392095597434
20
-9.8990299537019943
10
-9.0317792040253213
20
-9.8990299537019908
10
-13.864796110739642
20
-3.9076866808940309
10
-14.122237496494883
20
-3.9070899285542016
0
LWPOLYLINE
5
111
100
AcDbEntity
8
0
100
AcDbPolyline
90
4
70
1
43
0.0
10
-5.4343391265432537
20
-9.8990299537019624
10
-10.260616710166426
20
-3.9160412136516705
10
-10.518058095921649
20
-3.9154444613118518
10
-5.6912991320776811
20
-9.8990299537019624
0
LWPOLYLINE
5
112
100
AcDbEntity
8
0
100
AcDbPolyline
90
4
70
1
43
0.0
10
-11.805265024697794
20
-3.9124606996126943
10
-12.062706410453018
20
-3.9118639472728631
10
-7.2330591652842777
20
-9.8990299537019766
10
-6.9760991597498538
20
-9.8990299537019748
0
LWPOLYLINE
5
113
100
AcDbEntity
8
0
100
AcDbPolyline
90
4
70
1
43
0.0
10
-17.511459386661624
20
-9.8990299537020583
10
-17.254499381127182
20
-9.8990299537020565
10
-22.1029204549071
20
-3.8885906060193491
10
-22.360361840662343
20
-3.8879938536795162
0
LWPOLYLINE
5
114
100
AcDbEntity
8
0
100
AcDbPolyline
90
4
70
1
43
0.0
10
-21.073154911886171
20
-3.8909776153786844
10
-21.330596297641407
20
-3.8903808630388479
10
-16.483619364523889
20
-9.8990299537020512
10
-16.226659358989455
20
-9.8990299537020494
0
LWPOLYLINE
5
115
100
AcDbEntity
8
0
100
AcDbPolyline
90
4
70
1
43
0.0
10
-20.043389368865689
20
-3.893364624738247
10
-20.300830754621153
20
-3.8927678723985863
10
-15.455779342386149
20
-9.8990299537020423
10
-15.198819336851731
20
-9.8990299537020405
0
LWPOLYLINE
5
116
100
AcDbEntity
8
0
100
AcDbPolyline
90
4
70
1
43
0.0
10
-19.52850659735477
20
-3.8945581294175682
10
-19.785947983110226
20
-3.8939613770779111
10
-14.941859331317286
20
-9.8990299537020388
10
-14.684899325782855
20
-9.899029953702037
0
LWPOLYLINE
5
117
100
AcDbEntity
8
0
100
AcDbPolyline
90
4
70
1
43
0.0
10
-21.588037683396639
20
-3.889784110699015
10
-21.845479069151867
20
-3.8891873583591821
10
-16.997539375592748
20
-9.8990299537020547
10
-16.740579370058327
20
-9.899029953702053
0
LWPOLYLINE
5
118
100
AcDbEntity
8
0
100
AcDbPolyline
90
4
70
1
43
0.0
10
-23.123930816865915
20
-4.2912096576492083
10
-18.551529097348997
20
-9.8990299537019375
10
-18.293473703893635
20
-9.8990299537019339
10
-23.019415469136138
20
-4.1029005287724445
0
LWPOLYLINE
5
119
100
AcDbEntity
8
0
100
AcDbPolyline
90
4
70
1
43
0.0
10
-19.325695277715081
20
-9.8990299537019482
10
-23.437476860055249
20
-4.85613704427948
10
-23.541992207785025
20
-5.0444461731562349
10
-19.583750671170449
20
-9.8990299537019499
0
LWPOLYLINE
5
120
100
AcDbEntity
8
0
100
AcDbPolyline
90
4
70
1
43
0.0
10
-9.8026592206286107
20
-9.8990299537019979
10
-9.545699215094178
20
-9.8990299537019961
10
-14.37967888225011
20
-3.9064931762143669
10
-14.637120268005347
20
-3.9058964238745322
0
LWPOLYLINE
5
121
100
AcDbEntity
8
0
100
AcDbPolyline
90
4
70
1
43
0.0
10
-23.332961512325468
20
-4.6678279154027251
10
-19.067639884259727
20
-9.8990299537019411
10
-18.809584490804362
20
-9.8990299537019411
10
-23.228446164595692
20
-4.479518786525964
0
LWPOLYLINE
5
122
100
AcDbEntity
8
0
100
AcDbPolyline
90
4
70
1
43
0.0
10
-22.617803226417575
20
-3.8873971013396815
10
-22.875244612172811
20
-3.8868003489998504
10
-18.025379397730493
20
-9.8990299537020636
10
-17.768419392196058
20
-9.8990299537020618
0
LWPOLYLINE
5
123
100
AcDbEntity
8
0
100
AcDbPolyline
90
4
70
1
43
0.0
10
-23.751022903244586
20
-5.4210644309097535
10
-20.099861458081179
20
-9.8990299537019517
10
-19.841806064625807
20
-9.8990299537019482
10
-23.646507555514802
20
-5.2327553020329871
0
LWPOLYLINE
5
124
100
AcDbEntity
8
0
100
AcDbPolyline
90
4
70
1
43
0.0
10
-20.55827214037571
20
-3.8921711200583484
10
-20.815713526130942
20
-3.8915743677185173
10
-15.969699353455017
20
-9.8990299537020476
10
-15.712739347920582
20
-9.8990299537020441
0
LWPOLYLINE
5
125
100
AcDbEntity
8
0
100
AcDbPolyline
90
4
70
1
43
0.0
10
-11.032940867432091
20
-3.9142509566322126
10
-6.2052191431465502
20
-9.8990299537019677
10
-5.9482591376121228
20
-9.8990299537019659
10
-10.775499481676862
20
-3.9148477089720295
0
LWPOLYLINE
5
126
100
AcDbEntity
8
0
100
AcDbPolyline
90
4
70
1
43
0.0
10
-10.573539237231902
20
-9.899029953702005
10
-15.40944442527103
20
-3.9041061668550352
10
-15.666885811026273
20
-3.9035094145152041
10
-10.830499242766329
20
-9.8990299537020068
0
LWPOLYLINE
5
127
100
AcDbEntity
8
0
100
AcDbPolyline
90
4
70
1
43
0.0
10
-10.316579231697478
20
-9.8990299537020014
10
-10.059619226163047
20
-9.8990299537019997
10
-14.894561653760574
20
-3.905299671534701
10
-15.152003039515826
20
-3.9047029191948646
0
LWPOLYLINE
5
128
100
AcDbEntity
8
0
100
AcDbPolyline
90
4
70
1
43
0.0
10
-11.54782363894256
20
-3.913057451952529
10
-6.7191391542154122
20
-9.899029953701973
10
-6.4621791486809883
20
-9.8990299537019695
10
-11.290382253187332
20
-3.9136542042923637
0
LWPOLYLINE
5
129
100
AcDbEntity
8
0
100
AcDbPolyline
90
4
70
1
43
0.0
10
-12.320147796208257
20
-3.9112671949330338
10
-12.577589181963488
20
-3.9106704425932044
10
-7.7469791763531379
20
-9.8990299537019801
10
-7.4900191708187265
20
-9.8990299537019784
0
LWPOLYLINE
5
130
100
AcDbEntity
8
0
100
AcDbPolyline
90
10
70
1
43
0.0
10
-24.714982936082876
20
-6.6354536635742498
42
-0.30679801307195859
10
-24.764647220109744
20
-6.0768472882899864
10
-23.471465206804201
20
-3.7468739045304504
42
-0.27310684756649117
10
-23.033130151577108
20
-3.4895178022210231
10
-9.6619170329633111
20
-3.5204608097566523
42
-0.22478634756153226
10
-8.889203780367847
20
-3.8885304992952268
10
-4.006416663031299
20
-9.8770228448068362
42
-0.63212785414339401
10
-4.2389248822807346
20
-10.366601134654161
10
-21.197833006811305
20
-10.366601134654172
42
-0.22539419624676552
10
-21.972860404309483
20
-9.998528767478696
0
LWPOLYLINE
5
131
100
AcDbEntity
8
0
100
AcDbPolyline
90
4
70
1
43
0.0
10
-1.1843861905216393
20
-3.5331872985502493
10
-1.4545586211128203
20
-3.5177402565775999
10
-0.041143935797144593
20
-5.2584232985764663
10
0.095835596615316376
20
-5.1098373631196159
0
LWPOLYLINE
5
132
100
AcDbEntity
8
0
100
AcDbPolyline
90
4
70
1
43
0.0
10
-4.9668002187990652
20
-3.3169287109333538
10
-5.2369726493870061
20
-3.3014816689609265
10
-1.9588573895660275
20
-7.3386263949664539
10
-1.8218778571554104
20
-7.1900404595115681
0
LWPOLYLINE
5
133
100
AcDbEntity
8
0
100
AcDbPolyline
90
4
70
1
43
0.0
10
-0.10369646815762934
20
-3.5949754664407525
10
-0.37386889874871088
20
-3.5795284244681334
10
0.50677419385164058
20
-4.66407955675027
10
0.64375372626413707
20
-4.5154936212933867
0
LWPOLYLINE
5
134
100
AcDbEntity
8
0
100
AcDbPolyline
90
4
70
1
43
0.0
10
-2.2650759128857061
20
-3.4713991306597407
10
-2.5352483434768835
20
-3.4559520886871038
10
-0.58906206544594752
20
-5.8527670404026857
10
-0.45208253303350432
20
-5.7041811049458255
0
LWPOLYLINE
5
135
100
AcDbEntity
8
0
100
AcDbPolyline
90
4
70
1
43
0.0
10
-4.4264553576167387
20
-3.3478227948785939
10
-4.6966277882049994
20
-3.3323757529061382
10
-1.6848983247418197
20
-7.0414545240534911
10
-1.5479187923310178
20
-6.8928685885984535
0
LWPOLYLINE
5
136
100
AcDbEntity
8
0
100
AcDbPolyline
90
4
70
1
43
0.0
10
-3.3457656352510803
20
-3.4096109627691575
10
-3.6159380658409717
20
-3.3941639207966006
10
-1.1369801950939546
20
-6.4471107822281484
10
-1.0000006626822859
20
-6.2985248467721195
0
LWPOLYLINE
5
137
100
AcDbEntity
8
0
100
AcDbPolyline
90
4
70
1
43
0.0
10
-0.64404132933956859
20
-3.5640813824955195
10
-0.9142137599307496
20
-3.548634340522888
10
0.23281512902724444
20
-4.961251427663373
10
0.36979466143973028
20
-4.8126654922065075
0
LWPOLYLINE
5
138
100
AcDbEntity
8
0
100
AcDbPolyline
90
4
70
1
43
0.0
10
-1.7247310517036638
20
-3.5022932146049968
10
-1.9949034822948484
20
-3.486846172632367
10
-0.31510300062156915
20
-5.5555951694896022
10
-0.17812346820907621
20
-5.4070092340327429
0
LWPOLYLINE
5
139
100
AcDbEntity
8
0
100
AcDbPolyline
90
4
70
1
43
0.0
10
-2.8054207740677377
20
-3.4405050467144793
10
-3.0755932046589329
20
-3.4250580047418406
10
-0.86302113027031879
20
-6.1499389113158269
10
-0.72604159785786848
20
-6.0013529758589916
0
LWPOLYLINE
5
140
100
AcDbEntity
8
0
100
AcDbPolyline
90
4
70
1
43
0.0
10
-3.8861104964332078
20
-3.3787168788239121
10
-4.1562829270230068
20
-3.3632698368513623
10
-1.4109392599176118
20
-6.744282653140548
10
-1.273959727506643
20
-6.5956967176852901
0
LWPOLYLINE
5
141
100
AcDbEntity
8
0
100
AcDbPolyline
90
4
70
1
43
0.0
10
-2.6930811689953451
20
-8.3228432853127696
10
-7.2052962219616568
20
-2.7888389028463614
10
2.3702057903077223
20
-3.3363158647587881
10
-2.2400122132374665
20
-8.3366192713261675
42
-0.45642118608030158
0
LWPOLYLINE
5
142
100
AcDbEntity
8
0
100
AcDbPolyline
90
4
70
1
43
0.0
10
1.6143145746262775
20
-6.9389081039774023
10
1.4773680875306816
20
-7.087442074695276
10
4.7024413002909746
20
-11.042831851926815
10
4.9604966937464283
20
-11.042831851926822
0
LWPOLYLINE
5
143
100
AcDbEntity
8
0
100
AcDbPolyline
90
4
70
1
43
0.0
10
-0.5768292189031996
20
-9.3154516354634183
10
-0.71377570599878482
20
-9.4639856061812839
10
0.57355500500502998
20
-11.042831851926719
10
0.83161039846036644
20
-11.042831851926726
0
LWPOLYLINE
5
144
100
AcDbEntity
8
0
100
AcDbPolyline
90
4
70
1
43
0.0
10
1.8882075488174515
20
-6.6418401625416488
10
1.7512610617218307
20
-6.7903741332595544
10
5.2185520872016937
20
-11.042831851926826
10
5.4766074806571972
20
-11.042831851926833
0
LWPOLYLINE
5
145
100
AcDbEntity
8
0
100
AcDbPolyline
90
4
70
1
43
0.0
10
1.3404216004351035
20
-7.235976045413155
10
1.2034751133395183
20
-7.3845100161310269
10
4.1863305133802307
20
-11.042831851926801
10
4.4443859068357128
20
-11.042831851926808
0
LWPOLYLINE
5
146
100
AcDbEntity
8
0
100
AcDbPolyline
90
4
70
1
43
0.0
10
-1.1246151672855582
20
-9.90958751833492
10
-1.2615616543811399
20
-10.058121489052786
10
-0.4586665688164473
20
-11.042831851926691
10
-0.20061117536109663
20
-11.042831851926698
0
LWPOLYLINE
5
147
100
AcDbEntity
8
0
100
AcDbPolyline
90
4
70
1
43
0.0
10
0.79263565205273423
20
-7.8301119282846798
10
0.65568916495715612
20
-7.9786458990025508
10
3.1541089395587356
20
-11.042831851926774
10
3.4121643330141289
20
-11.042831851926779
0
LWPOLYLINE
5
148
100
AcDbEntity
8
0
100
AcDbPolyline
90
4
70
1
43
0.0
10
-0.30293624471201142
20
-9.0183836940276727
10
-0.43988273180758952
20
-9.1669176647455402
10
1.0896657919157775
20
-11.042831851926733
10
1.3477211853711246
20
-11.04283185192674
0
LWPOLYLINE
5
149
100
AcDbEntity
8
0
100
AcDbPolyline
90
4
70
1
43
0.0
10
0.51874267786154959
20
-8.1271798697204396
10
0.3817961907659857
20
-8.2757138404382893
10
2.6379981526479988
20
-11.04283185192676
10
2.8960535461033778
20
-11.042831851926767
0
LWPOLYLINE
5
150
100
AcDbEntity
8
0
100
AcDbPolyline
90
4
70
1
43
0.0
10
1.0665286262439118
20
-7.5330439868489147
10
0.92958213914830168
20
-7.6815779575668177
10
3.670219726469476
20
-11.042831851926787
10
3.9282751199249475
20
-11.042831851926794
0
LWPOLYLINE
5
151
100
AcDbEntity
8
0
100
AcDbPolyline
90
4
70
1
43
0.0
10
-0.85072219309437358
20
-9.6125195768991638
10
-0.98766868018997656
20
-9.7610535476170561
10
0.057444218094296673
20
-11.042831851926705
10
0.31549961154964379
20
-11.042831851926712
0
LWPOLYLINE
5
152
100
AcDbEntity
8
0
100
AcDbPolyline
90
4
70
1
43
0.0
10
-0.029043270520819675
20
-8.7213157525919289
10
-0.16598975761640489
20
-8.8698497233097839
10
1.6057765788265144
20
-11.042831851926731
10
1.8638319722819041
20
-11.042831851926739
0
LWPOLYLINE
5
153
100
AcDbEntity
8
0
100
AcDbPolyline
90
4
70
1
43
0.0
10
0.24484970367036496
20
-8.4242478111561834
10
0.10790321657476909
20
-8.5727817818740597
10
2.1218873657372512
20
-11.042831851926746
10
2.3799427591926339
20
-11.042831851926753
0
LWPOLYLINE
5
154
100
AcDbEntity
8
0
100
AcDbPolyline
90
4
70
1
43
0.0
10
2.2288324565265922
20
-5.7025380874527478
42
-0.45642118608030369
10
2.6819014122845175
20
-5.7163140734661493
10
7.3014835416635293
20
-11.381998764700199
10
-3.0075601652155446
20
-11.3819987646895
0
LWPOLYLINE
5
155
100
AcDbEntity
8
0
100
AcDbPolyline
90
4
70
1
43
0.0
10
15.688515433626769
20
-7.4261336147117802
10
13.812355951829993
20
-5.1251185539082513
10
13.544762354658673
20
-5.1134204277025059
10
15.55096572340365
20
-7.5739277626631516
0
LWPOLYLINE
5
156
100
AcDbEntity
8
0
100
AcDbPolyline
90
4
70
1
43
0.0
10
8.4604840084431174
20
-4.8911560297948409
10
8.192890411286303
20
-4.8794579035897288
10
12.41973275363808
20
-10.063467037009374
10
12.677451529603012
20
-10.063054192637917
0
LWPOLYLINE
5
157
100
AcDbEntity
8
0
100
AcDbPolyline
90
4
70
1
43
0.0
10
6.3197352311179884
20
-4.7975710201508024
10
6.0521416339523455
20
-4.7858728939452879
10
10.357982545824328
20
-10.066769791981113
10
10.615701321799619
20
-10.066356947609645
0
LWPOLYLINE
5
158
100
AcDbEntity
8
0
100
AcDbPolyline
90
4
70
1
43
0.0
10
11.131138873748164
20
-10.065531258866736
10
6.8549224254429966
20
-4.8209672725615036
10
6.5873288282956892
20
-4.8092691463568062
10
10.873420097790969
20
-10.065944103238166
0
LWPOLYLINE
5
159
100
AcDbEntity
8
0
100
AcDbPolyline
90
4
70
1
43
0.0
10
15.963614854071309
20
-7.1305453188107437
10
14.51633393896465
20
-5.3555282079600772
10
14.123167208933445
20
-5.189820962195455
10
15.826065143848396
20
-7.2783394667619623
0
LWPOLYLINE
5
160
100
AcDbEntity
8
0
100
AcDbPolyline
90
4
70
1
43
0.0
10
15.138316592740033
20
-8.0173102065111195
10
12.74198156315304
20
-5.0783260490856277
10
12.474387965975815
20
-5.0666279228796185
10
15.000766882513858
20
-8.1651043544658073
0
LWPOLYLINE
5
161
100
AcDbEntity
8
0
100
AcDbPolyline
90
4
70
1
43
0.0
10
10.066045591446212
20
-4.9613447870282723
10
9.7984519942865731
20
-4.9496466608230296
10
13.625269780295454
20
-9.6430458339659459
10
13.762819490512435
20
-9.4952516860211595
0
LWPOLYLINE
5
162
100
AcDbEntity
8
0
100
AcDbPolyline
90
4
70
1
43
0.0
10
9.5308583971066909
20
-4.9379485346168899
10
9.2632647999545696
20
-4.9262504084119891
10
13.350170359854559
20
-9.9386341298630487
10
13.48772007006783
20
-9.7908399819222147
0
LWPOLYLINE
5
163
100
AcDbEntity
8
0
100
AcDbPolyline
90
4
70
1
43
0.0
10
7.39010961977419
20
-4.8443635249725538
10
7.1225160226251596
20
-4.8326653987677615
10
11.388857649739599
20
-10.065118414495252
10
11.646576425697965
20
-10.064705570123822
0
LWPOLYLINE
5
164
100
AcDbEntity
8
0
100
AcDbPolyline
90
4
70
1
43
0.0
10
8.9956712027778565
20
-4.9145522822060084
10
8.7280776056204523
20
-4.9028541560008589
10
12.935170305591754
20
-10.06264134826643
10
13.19288908155648
20
-10.062228503894978
0
LWPOLYLINE
5
165
100
AcDbEntity
8
0
100
AcDbPolyline
90
4
70
1
43
0.0
10
14.450568041624528
20
-8.756280946267978
10
14.588117751850874
20
-8.6084867983131161
10
11.671607174474211
20
-5.0315335442628601
10
11.404013577296602
20
-5.0198354180568288
0
LWPOLYLINE
5
166
100
AcDbEntity
8
0
100
AcDbPolyline
90
4
70
1
43
0.0
10
10.601232785787239
20
-4.9847410394397373
10
10.333639188625583
20
-4.9730429132343934
10
13.900369200739391
20
-9.3474575380656546
10
14.037918910957529
20
-9.1996633901196248
0
LWPOLYLINE
5
167
100
AcDbEntity
8
0
100
AcDbPolyline
90
4
70
1
43
0.0
10
7.9252968141076714
20
-4.8677597773836627
10
7.6577032169550918
20
-4.8560616511787265
10
11.904295201688413
20
-10.06429272575232
10
12.162013977649522
20
-10.063879881380863
0
LWPOLYLINE
5
168
100
AcDbEntity
8
0
100
AcDbPolyline
90
4
70
1
43
0.0
10
14.863217172295514
20
-8.3128985024120752
10
12.206794368813703
20
-5.0549297966742666
10
11.939200771636237
20
-5.0432316704682307
10
14.725667462069218
20
-8.4606926503668625
0
LWPOLYLINE
5
169
100
AcDbEntity
8
0
100
AcDbPolyline
90
4
70
1
43
0.0
10
15.413416013182157
20
-7.7217219106128114
10
13.277168757490493
20
-5.1017223014969
10
13.009575160318967
20
-5.0900241752911386
10
15.27586630295891
20
-7.8695160585643
0
LWPOLYLINE
5
170
100
AcDbEntity
8
0
100
AcDbPolyline
90
4
70
1
43
0.0
10
11.136419980126782
20
-5.0081372918511509
10
10.868826382965068
20
-4.9964391656457963
10
14.175468621183995
20
-9.0518692421646261
10
14.313018331402191
20
-8.9040750942185429
0
LWPOLYLINE
5
171
100
AcDbEntity
8
0
100
AcDbPolyline
90
10
70
1
43
0.0
10
13.669961310542661
20
-10.047882381850615
42
-0.20825593284605604
10
12.937939547055691
20
-10.366601134654251
10
9.5290364669121814
20
-10.36660113465425
42
-0.22539419624676446
10
8.7540090694140495
20
-9.9985287674787955
10
4.5046388203831951
20
-4.7868902917373077
42
-0.64752108743733405
10
4.7502493308369189
20
-4.2975982551828116
10
13.366612317260127
20
-4.6742713247698839
42
-0.089030902214625784
10
13.711320211439457
20
-4.751818765074014
10
16.793902646632112
20
-6.0510290139620357
42
-0.5210661199576716
10
16.905470970594664
20
-6.5713981884618402
0
ENDSEC
0
SECTION
2
OBJECTS
0
DICTIONARY
5
C
100
AcDbDictionary
3
ACAD_GROUP
350
D
3
ACAD_MLINESTYLE
350
17
0
DICTIONARY
5
D
100
AcDbDictionary
0
DICTIONARY
5
1A
330
C
100
AcDbDictionary
0
DICTIONARY
5
17
100
AcDbDictionary
0
ENDSEC
0
EOF
