0
SECTION
2
HEADER
9
$INSUNITS
70
5
9
$ACADVER
1
AC1014
9
$HANDSEED
5
FFFF
0
ENDSEC
0
SECTION
2
TABLES
0
TABLE
2
VPORT
5
8
100
AcDbSymbolTable
0
ENDTAB
0
TABLE
2
LTYPE
5
5
100
AcDbSymbolTable
0
LTYPE
5
14
100
AcDbSymbolTableRecord
100
AcDbLinetypeTableRecord
2
BYBLOCK
70
0
0
LTYPE
5
15
100
AcDbSymbolTableRecord
100
AcDbLinetypeTableRecord
2
BYLAYER
70
0
0
ENDTAB
0
TABLE
2
LAYER
5
2
100
AcDbSymbolTable
70
2
0
LAYER
5
50
100
AcDbSymbolTableRecord
100
AcDbLayerTableRecord
2
0
70
0
6
CONTINUOUS
0
ENDTAB
0
TABLE
2
STYLE
5
3
100
AcDbSymbolTable
70
1
0
STYLE
5
11
100
AcDbSymbolTableRecord
100
AcDbTextStyleTableRecord
2
STANDARD
70
0
0
ENDTAB
0
TABLE
2
VIEW
5
6
100
AcDbSymbolTable
70
0
0
ENDTAB
0
TABLE
2
UCS
5
7
100
AcDbSymbolTable
70
0
0
ENDTAB
0
TABLE
2
APPID
5
9
100
AcDbSymbolTable
70
2
0
APPID
5
12
100
AcDbSymbolTableRecord
100
AcDbRegAppTableRecord
2
ACAD
70
0
0
ENDTAB
0
TABLE
2
DIMSTYLE
5
A
100
AcDbSymbolTable
70
1
0
ENDTAB
0
TABLE
2
BLOCK_RECORD
5
1
100
AcDbSymbolTable
70
1
0
BLOCK_RECORD
5
1F
100
AcDbSymbolTableRecord
100
AcDbBlockTableRecord
2
*MODEL_SPACE
0
BLOCK_RECORD
5
1B
100
AcDbSymbolTableRecord
100
AcDbBlockTableRecord
2
*PAPER_SPACE
0
ENDTAB
0
ENDSEC
0
SECTION
2
BLOCKS
0
BLOCK
5
20
100
AcDbEntity
100
AcDbBlockBegin
2
*MODEL_SPACE
0
ENDBLK
5
21
100
AcDbEntity
100
AcDbBlockEnd
0
BLOCK
5
1C
100
AcDbEntity
100
AcDbBlockBegin
2
*PAPER_SPACE
0
ENDBLK
5
1D
100
AcDbEntity
100
AcDbBlockEnd
0
ENDSEC
0
SECTION
2
ENTITIES
0
LWPOLYLINE
5
100
100
AcDbEntity
8
OUTER_PROFILES
100
AcDbPolyline
90
20
70
1
43
0.0
10
53.396999999999998
20
28.870552496635209
10
53.396999999999998
20
40.506017326628445
10
60
20
40.506017326628445
10
60
20
0
10
0
20
0
10
0
20
40.506017326628438
10
6.6030000000000086
20
40.506017326628438
10
6.6030000000000086
20
28.870552496635209
10
6.6039999999999992
20
28.870552496635209
10
6.6040000000000134
20
43.050090032696737
10
19.999000000000009
20
43.050090032696737
10
19.999000000000002
20
36.233507332595991
10
20
20
36.233507332595991
10
19.999999999999993
20
44.797898906714344
10
40.000000000000007
20
44.797898906714344
10
40
20
36.233507332595991
10
40.000999999999998
20
36.233507332595991
10
40.000999999999998
20
43.050090032696737
10
53.396000000000001
20
43.050090032696737
10
53.396000000000001
20
28.870552496635209
0
LWPOLYLINE
5
101
100
AcDbEntity
8
INTERIOR_PROFILES
100
AcDbPolyline
90
8
70
1
43
0.0
10
6.5
20
20.098550988295532
42
-0.41421356237309503
10
7.5
20
21.098550988295532
10
41.5
20
21.098550988295532
42
-0.41421356237309503
10
42.5
20
20.098550988295532
10
42.5
20
18.598550988295536
42
-0.41421356237309503
10
41.5
20
17.598550988295536
10
7.5
20
17.598550988295536
42
-0.41421356237309503
10
6.5
20
18.598550988295536
0
LINE
5
102
100
AcDbEntity
8
BEND
100
AcDbLine
10
53.396000000000001
20
40.935509685516344
30
-2.5918537224614998e-13
11
40.000999999999998
21
40.935509685516344
31
-2.606444756181663e-13
0
LINE
5
103
100
AcDbEntity
8
BEND
100
AcDbLine
10
20
20
41.282528282893594
30
-2.1869661441937798e-13
11
40
21
41.282528282893594
31
-2.1869661441937798e-13
0
LINE
5
104
100
AcDbEntity
8
BEND
100
AcDbLine
10
40
20
37.184952276317276
30
-2.432257390201408e-13
11
20
21
37.184952276317276
31
-2.4540577346039281e-13
0
LINE
5
105
100
AcDbEntity
8
BEND
100
AcDbLine
10
40
20
40.152607035252068
30
-2.2519213082203596e-13
11
19.999999999999993
21
40.152607035252068
31
-2.2346432846196315e-13
0
LINE
5
106
100
AcDbEntity
8
BEND
100
AcDbLine
10
20
20
33.475543188089205
30
-2.4581721463319774e-13
11
40
21
33.475543188089205
31
-2.4581721463319774e-13
0
LINE
5
107
100
AcDbEntity
8
BEND
100
AcDbLine
10
19.999000000000002
20
40.935509685516344
30
-2.5918537224614998e-13
11
6.6040000000000134
21
40.935509685516344
31
-2.606444756181663e-13
0
LINE
5
108
100
AcDbEntity
8
BEND
100
AcDbLine
10
0
20
5.2235830508411532
30
3.6782524105565354e-16
11
60
21
5.2235830508411532
31
3.6782524105565354e-16
0
LINE
5
109
100
AcDbEntity
8
BEND
100
AcDbLine
10
0
20
24.642450567321418
30
-1.8037568779220076e-13
11
6.6030000000000086
21
24.642450567321418
31
-1.8037568779220076e-13
0
LINE
5
110
100
AcDbEntity
8
BEND
100
AcDbLine
10
60
20
3.1698403471803758
30
2.7755575615628914e-15
11
0
21
3.1698403471803758
31
1.1102230246251565e-15
0
LINE
5
111
100
AcDbEntity
8
BEND
100
AcDbLine
10
6.6039999999999992
20
36.502678991155577
30
-2.5650054236767162e-13
11
19.999000000000009
21
36.502678991155577
31
-2.5650054236767162e-13
0
LINE
5
112
100
AcDbEntity
8
BEND
100
AcDbLine
10
53.396999999999998
20
24.642450567321415
30
-1.8035388861408814e-13
11
60
21
24.642450567321415
31
-1.8035388861408814e-13
0
LINE
5
113
100
AcDbEntity
8
BEND
100
AcDbLine
10
0
20
22.32831704870738
30
-1.5943404457111059e-13
11
60
21
22.32831704870738
31
-1.5943404457111059e-13
0
LINE
5
114
100
AcDbEntity
8
BEND
100
AcDbLine
10
6.603999999999985
20
29.139724155194784
30
-2.2823736650803877e-13
11
53.395999999999987
21
29.139724155194784
31
-2.2823736650803877e-13
0
LINE
5
115
100
AcDbEntity
8
BEND
100
AcDbLine
10
0
20
15.89085833466096
30
-8.1514225092231068e-14
11
60
21
15.89085833466096
31
-8.1514225092231068e-14
0
LINE
5
116
100
AcDbEntity
8
BEND
100
AcDbLine
10
40.001000000000005
20
36.502678991155577
30
-2.5650054236767162e-13
11
53.396000000000001
21
36.502678991155577
31
-2.5650054236767162e-13
0
LINE
5
117
100
AcDbEntity
8
BEND_EXTENT
100
AcDbLine
10
53.396999999999998
20
25.117396544691122
30
-1.8252066524837574e-13
11
60
21
25.117396544691122
31
-1.8252066524837574e-13
0
LINE
5
118
100
AcDbEntity
8
BEND_EXTENT
100
AcDbLine
10
53.396000000000001
20
28.870552496635209
30
-2.2737367544323206e-13
11
6.6039999999999992
21
28.870552496635209
31
-2.2737367544323206e-13
0
LINE
5
119
100
AcDbEntity
8
BEND_EXTENT
100
AcDbLine
10
0
20
25.117396544691115
30
-1.8207657603852567e-13
11
6.6030000000000086
21
25.117396544691115
31
-1.8207657603852567e-13
0
LINE
5
120
100
AcDbEntity
8
BEND_EXTENT
100
AcDbLine
10
6.6030000000000015
20
24.167504589951697
30
-1.7408297026122455e-13
11
0
21
24.167504589951697
31
-1.7408297026122455e-13
0
LINE
5
121
100
AcDbEntity
8
BEND_EXTENT
100
AcDbLine
10
0
20
22.803263026077079
30
-1.6342482922482304e-13
11
60
21
22.803263026077079
31
-1.6342482922482304e-13
0
LINE
5
122
100
AcDbEntity
8
BEND_EXTENT
100
AcDbLine
10
60
20
24.167504589951697
30
-1.7408297026122455e-13
11
53.396999999999998
21
24.167504589951697
31
-1.7408297026122455e-13
0
LINE
5
123
100
AcDbEntity
8
BEND_EXTENT
100
AcDbLine
10
40
20
32.997015795094413
30
-2.4552582189585337e-13
11
20
21
32.997015795094413
31
-2.4552582189585337e-13
0
LINE
5
124
100
AcDbEntity
8
BEND_EXTENT
100
AcDbLine
10
20
20
33.954070581083997
30
-2.5224267119483557e-13
11
40
21
33.954070581083997
31
-2.5224267119483557e-13
0
LINE
5
125
100
AcDbEntity
8
BEND_EXTENT
100
AcDbLine
10
19.999000000000002
20
36.233507332595991
30
-2.5573987372240481e-13
11
6.6039999999999992
21
36.233507332595991
31
-2.5573987372240481e-13
0
LINE
5
126
100
AcDbEntity
8
BEND_EXTENT
100
AcDbLine
10
6.603999999999985
20
29.408895813754366
30
-2.3292479056635784e-13
11
53.395999999999987
21
29.408895813754366
31
-2.3292479056635784e-13
0
LINE
5
127
100
AcDbEntity
8
BEND_EXTENT
100
AcDbLine
10
53.396000000000001
20
36.233507332595991
30
-2.5573987372240481e-13
11
40.000999999999998
21
36.233507332595991
31
-2.5573987372240481e-13
0
LINE
5
128
100
AcDbEntity
8
BEND_EXTENT
100
AcDbLine
10
40
20
36.706424883322455
30
-2.4513724383723456e-13
11
20
21
36.706424883322455
31
-2.4513724383723456e-13
0
LINE
5
129
100
AcDbEntity
8
BEND_EXTENT
100
AcDbLine
10
40.000999999999998
20
41.204681344075922
30
-2.6023627697213669e-13
11
53.396000000000001
21
41.204681344075922
31
-2.5668356329333619e-13
0
LINE
5
130
100
AcDbEntity
8
BEND_EXTENT
100
AcDbLine
10
53.396000000000001
20
40.666338026956765
30
-2.6112445539183682e-13
11
40.000999999999998
21
40.666338026956765
31
-2.6112445539183682e-13
0
LINE
5
131
100
AcDbEntity
8
BEND_EXTENT
100
AcDbLine
10
40.001000000000005
20
36.771850649715134
30
-2.5579538487363607e-13
11
53.396000000000001
21
36.771850649715134
31
-2.5579538487363607e-13
0
LINE
5
132
100
AcDbEntity
8
BEND_EXTENT
100
AcDbLine
10
20
20
41.509828794566104
30
-2.1627144519698049e-13
11
40
21
41.509828794566104
31
-2.1627144519698049e-13
0
LINE
5
133
100
AcDbEntity
8
BEND_EXTENT
100
AcDbLine
10
40.000000000000007
20
41.055227771221062
30
-2.2115642650533118e-13
11
19.999999999999993
21
41.055227771221062
31
-2.2115642650533118e-13
0
LINE
5
134
100
AcDbEntity
8
BEND_EXTENT
100
AcDbLine
10
6.6040000000000134
20
41.204681344075922
30
-2.6023627697213669e-13
11
19.999000000000002
21
41.204681344075922
31
-2.5668356329333619e-13
0
LINE
5
135
100
AcDbEntity
8
BEND_EXTENT
100
AcDbLine
10
19.999000000000002
20
40.666338026956765
30
-2.6112445539183682e-13
11
6.6040000000000063
21
40.666338026956765
31
-2.6112445539183682e-13
0
LINE
5
136
100
AcDbEntity
8
BEND_EXTENT
100
AcDbLine
10
6.6039999999999992
20
36.771850649715134
30
-2.5579538487363607e-13
11
19.999000000000009
21
36.771850649715134
31
-2.5579538487363607e-13
0
LINE
5
137
100
AcDbEntity
8
BEND_EXTENT
100
AcDbLine
10
19.999999999999993
20
40.379907546924578
30
-2.2470914018413168e-13
11
40
21
40.379907546924578
31
-2.2648549702353193e-13
0
LINE
5
138
100
AcDbEntity
8
BEND_EXTENT
100
AcDbLine
10
40
20
39.925306523579522
30
-2.2604140781368187e-13
11
20
21
39.925306523579522
31
-2.2604140781368187e-13
0
LINE
5
139
100
AcDbEntity
8
BEND_EXTENT
100
AcDbLine
10
20
20
37.663479669312053
30
-2.4247270857813419e-13
11
40
21
37.663479669312053
31
-2.4247270857813419e-13
0
LINE
5
140
100
AcDbEntity
8
BEND_EXTENT
100
AcDbLine
10
60
20
21.853371071337676
30
-1.4210854715202004e-13
11
0
21
21.853371071337676
31
-1.4210854715202004e-13
0
LINE
5
141
100
AcDbEntity
8
BEND_EXTENT
100
AcDbLine
10
0
20
16.840750289400368
30
-8.8817841970012523e-14
11
60
21
16.840750289400368
31
-8.8817841970012523e-14
0
LINE
5
142
100
AcDbEntity
8
BEND_EXTENT
100
AcDbLine
10
60
20
14.940966379921544
30
-7.460698725481052e-14
11
0
21
14.940966379921544
31
-7.460698725481052e-14
0
LINE
5
143
100
AcDbEntity
8
BEND_EXTENT
100
AcDbLine
10
0
20
5.4927547094007245
30
3.5527136788005009e-15
11
60
21
5.4927547094007245
31
3.5527136788005009e-15
0
LINE
5
144
100
AcDbEntity
8
BEND_EXTENT
100
AcDbLine
10
60
20
4.9544113922815818
30
1.7763568394002505e-15
11
0
21
4.9544113922815818
31
1.7763568394002505e-15
0
LINE
5
145
100
AcDbEntity
8
BEND_EXTENT
100
AcDbLine
10
0
20
3.4390120057399578
30
3.5527136788005009e-15
11
60
21
3.4390120057399578
31
3.5527136788005009e-15
0
LINE
5
146
100
AcDbEntity
8
BEND_EXTENT
100
AcDbLine
10
60
20
2.9006686886208115
30
1.7763568394002505e-15
11
0
21
2.9006686886208115
31
1.7763568394002505e-15
0
ENDSEC
0
SECTION
2
OBJECTS
0
DICTIONARY
5
C
100
AcDbDictionary
3
ACAD_GROUP
350
D
3
ACAD_MLINESTYLE
350
17
0
DICTIONARY
5
D
100
AcDbDictionary
0
DICTIONARY
5
1A
330
C
100
AcDbDictionary
0
DICTIONARY
5
17
100
AcDbDictionary
0
ENDSEC
0
EOF
